<svg id="圖層_1" data-name="圖層 1" xmlns="http://www.w3.org/2000/svg" viewBox="0 0 1289.42 141.8"><path d="M337.81,465.65l1.32-.44a14.11,14.11,0,0,0,5.57-3.59c.2-.39.9-.64,2.13-.73a4.59,4.59,0,0,1,1.68-1.32,15,15,0,0,0,2.24-1.14,18,18,0,0,1,4.43-1.65l1.54-.73a5.12,5.12,0,0,1,2.42-.58l2.05-.59a30.05,30.05,0,0,1,5.57-.51c.14,0,.86.16,2.16.47a5.25,5.25,0,0,1,2.38,1,12.24,12.24,0,0,0,2.16,1.65c1.15.76,1.72,2.67,1.72,5.75a15.17,15.17,0,0,1-.73,4.69c-.2,0-.61.27-1.25.8A3.68,3.68,0,0,0,372,471c-.17,1-.46,1.52-.88,1.72s-.79.8-1.13,1.83a33.67,33.67,0,0,1-2.64,5.2l-4,7-.14.58A17.4,17.4,0,0,1,361,492l-.73,1.54-.29.15a6.22,6.22,0,0,1-1.17,2.71l-.52.73a7.11,7.11,0,0,1-1.31,3.44c-.2.1-.35.52-.44,1.25l-.88,1.9a2.28,2.28,0,0,0-.59,1.21,1.18,1.18,0,0,1-.36.84,3.1,3.1,0,0,0-.66,1.36,13.25,13.25,0,0,1-.88,2.09,5.54,5.54,0,0,0-.52,1.09l.3,1.1V512a7.13,7.13,0,0,1-.15.88,1.67,1.67,0,0,1-.48.29,1.2,1.2,0,0,0-.54.55,2.08,2.08,0,0,1-.66.7l.14,1.31-.14,1.18v.36l1.68-.51c.1-.34,1.34-1.34,3.74-3a4.47,4.47,0,0,0,1-2,13,13,0,0,0,2.27-1.69,6.82,6.82,0,0,1,1.72-1.24,2.88,2.88,0,0,0,1.39-1.47,21.83,21.83,0,0,1,3.63-4.17l.73-1.18c0-.53.71-1.29,2.12-2.27l.73-1.17c.1-.24.56-.51,1.39-.8a7.14,7.14,0,0,1,1.8-2.68,16.39,16.39,0,0,0,2.49-3.29,3.63,3.63,0,0,1,2.74-2.09l.73-1.39a3.24,3.24,0,0,1,1.07-2.31,25.85,25.85,0,0,0,1.94-2.56,8.13,8.13,0,0,1,1.83-2l.44-1a2.86,2.86,0,0,1,1.57-2.05c.85-.44,1.28-.71,1.28-.81l-.29-.88a5.73,5.73,0,0,1,.51-1.13,13.45,13.45,0,0,0,.88-2.2,2.1,2.1,0,0,1,1.1-1.5,9.36,9.36,0,0,1,2-2.49c.37-.2.92-.51,1.66-.95v-1l.58-2-.14-1c0-.44.39-.76,1.17-.95.15,0,.42-.42.81-1.25a14.35,14.35,0,0,1,1-1.9l.14-.88a4.79,4.79,0,0,1,2.57-2l1.32-1a2.35,2.35,0,0,1,1.47-.58,3,3,0,0,1,1.17.29,9.43,9.43,0,0,0,2.67.44q2,.15,2,4.54a4.83,4.83,0,0,1-.66,2.46,4.81,4.81,0,0,0-.73,1.86,12.13,12.13,0,0,1-1.91,3.45l-.29,1.53L402,475.39v.73l.15.95c0,.39-.49.69-1.46.88l-.88.44a1.24,1.24,0,0,1,.14.44l-1.39,5.57q0,.44-1.17,1.53c-.1,0-.17.4-.22,1.18a5.44,5.44,0,0,1-.44,1.94,5.29,5.29,0,0,0-.47,1.5,5.2,5.2,0,0,1-.63,1.65,3.46,3.46,0,0,0-.51,1.64v.59a1.77,1.77,0,0,0-.59,1.25v.44l.15.73q0,.28-.66.51t-.66.51a3,3,0,0,0,.44,1.1v.73a3.48,3.48,0,0,1-.55,1.43,4.18,4.18,0,0,0-.55,2l-.58,2.41.14,1.47-.29,2,.59,3-.15,2.27a1.32,1.32,0,0,0,.7,1.17,3.2,3.2,0,0,1,1,.88,1,1,0,0,0,.88.44,6.77,6.77,0,0,0,4.91-2.2q5.43-5.64,5.57-5.71l1-.59a8.71,8.71,0,0,1,.7-2.38l.73-.47a4.14,4.14,0,0,0,1.14-1.83l.59-.88.73-1.83a2.66,2.66,0,0,0,2.2-2.35,6.49,6.49,0,0,1,.66-2.27l1.47-.14.52-.88-.52-.52c.74-.68,1.11-1.22,1.11-1.61a4.45,4.45,0,0,1,.73-1.68l.59-1.32A3.52,3.52,0,0,1,418,488a7,7,0,0,0,1.22-2v-.65a6,6,0,0,0,2.06-4.18c.15-.39.57-1.26,1.26-2.6a7.79,7.79,0,0,0,1-3.41l-.15-1c0-.93.67-2,2-3.3l-.3-1.68c0-.39.32-.87.95-1.43s1-1,1-1.28a3.48,3.48,0,0,0-.29-1v-.44a8,8,0,0,1,.73-3c.83-.19,1.24-.44,1.24-.73a1.42,1.42,0,0,0-.84-1.17q-.84-.51-.84-.81a3.73,3.73,0,0,1,.59-1l-.15-2.13c0-.29.27-.68.8-1.17a3.14,3.14,0,0,1-.36-.88,10.6,10.6,0,0,0-.62-1.57,5,5,0,0,1-.55-1.94l.44-2.42-.15-3.44a4.66,4.66,0,0,1,2.86-4.47l1.24-.73c.59-.64,1.83-1,3.74-1a3.19,3.19,0,0,1,3.44,2.57l.58.88a6.41,6.41,0,0,1,.88,3.51l-.58,4,.44,2.86a2.3,2.3,0,0,1-.59,1l-.44.73a20.86,20.86,0,0,1,.44,3,2.69,2.69,0,0,1-.51,1.9,2.41,2.41,0,0,0-.66,1.1l-.44,1.39a2.41,2.41,0,0,0-.81,1c0,.24-.14,1.68-.29,4.32,0,.44-.29.83-.88,1.17s-.88.66-.88.95a7.13,7.13,0,0,0,.15.88v.66a4.77,4.77,0,0,1-2,4.18q-1.76,6.07-3.33,8a11.77,11.77,0,0,0-2.23,4,7.93,7.93,0,0,1-1.32.88c-.1.29-.34,1.05-.74,2.27a26,26,0,0,1-2.19,4.65,14.22,14.22,0,0,1-2.06,3.11l-.73,1.54c-.1.58-.29.88-.59.88a2.48,2.48,0,0,0-1.68.73v1.39c0,.2-.22.51-.66.95a12.64,12.64,0,0,0-1.8,3.23,7.26,7.26,0,0,1-2.6,3.44c-1.08.14-1.64.23-1.69.25a2.88,2.88,0,0,0-.25.77,12.79,12.79,0,0,0-.26,1.29,2.55,2.55,0,0,1-.8,1.28.6.6,0,0,0-.44-.15c-.45,0-.66.2-.66.59v.36l.14.59q0,1-3.15,3.44a6,6,0,0,0-2.64,2.05q-.74,1.17-4.36,3.08t-5.39,1.9l-1.39.15-2.34-.59a7.42,7.42,0,0,1-3.6-1.61,9,9,0,0,1-1.5-1.87,8,8,0,0,0-1.69-1.9c-.8-.71-1.2-2.06-1.2-4.07a14.39,14.39,0,0,0-1.4-3.14c.2-1.91.3-3.25.3-4v-1.25a7.6,7.6,0,0,1,.77-2.67,10.73,10.73,0,0,0,.77-2.09v-.44l-.15-1.24a8.81,8.81,0,0,1,.66-2.16,8.39,8.39,0,0,0,.66-2.31.52.52,0,0,0-.59-.59c-.49,0-.76.47-.81,1.39s-1,2.15-2.93,3.67l-2.27,3.44a3.08,3.08,0,0,1-.59.95l-1,2.34a.67.67,0,0,1-.66.3.4.4,0,0,1-.29-.15l-.74-.15c-.19.1-.33.58-.4,1.43a2.69,2.69,0,0,1-.77,1.87l-1.4-.44-.14.44v1.25c0,.29-.49.83-1.47,1.61a1.5,1.5,0,0,0-1.25.8c-.09,0-.14,0-.14.15l-1.18-.15-.14.3.14.87c0,.49-.54,1.34-1.61,2.53s-1.69,1.8-1.84,1.8a2,2,0,0,1-.88-.15l-.14.15.14,1.24a2.48,2.48,0,0,1-1.68,1,4.16,4.16,0,0,0-.59.73l-2.72,2.56a10.85,10.85,0,0,0-1.68.15,2.62,2.62,0,0,0-.74-.29,7,7,0,0,0-.25,1.13q-.19,1-1.65,1l-.52.44c.29.49-.74,1.68-3.12,3.59s-4.26,2.85-5.68,2.85a3.35,3.35,0,0,1-2.41-1,21.19,21.19,0,0,0-1.72-1.51,4.14,4.14,0,0,1-1.21-1.5c-.34-.66-.84-1.51-1.5-2.56a6.16,6.16,0,0,1-1-3.33c0-.1.14-.77.44-2s.53-2.41.73-3.51.43-1.74.7-1.91a3.43,3.43,0,0,0,.91-1.39,12.23,12.23,0,0,0,.51-1.21l-.14-1.1a.57.57,0,0,1-.15-.44,3.8,3.8,0,0,1,.77-1.57,7,7,0,0,0,1.06-2.64,5.15,5.15,0,0,1,.59-1.86,5.9,5.9,0,0,0,.66-1.29,4,4,0,0,1,1-1.5q.62-.59,5.23-10.32c.83-2.4,1.64-3.87,2.42-4.44s1.22-1,1.32-1.28a6.33,6.33,0,0,1-.73-1.32l1.31-2.12a2.13,2.13,0,0,1,.7-1.57,3.56,3.56,0,0,0,.84-1.14l.59-.29a8,8,0,0,1,1-2.57.7.7,0,0,1,.19-.58,23,23,0,0,0,1.5-2.42v-1.17l.44-.88,1-.66a19.47,19.47,0,0,1,1.83-3.88l.44-.73a3.84,3.84,0,0,1,.88-.88q1.83-4.91,1.83-5.13c0-.29-.34-.59-1-.88L362,461a5.23,5.23,0,0,1-1.39.44L359,461a8.7,8.7,0,0,0-2.42,1.76,10.75,10.75,0,0,1-5,1.25,5,5,0,0,0-2.78,1.2,27.46,27.46,0,0,1-5.43,2.82l-1.1.59Q341.63,470,341,470l-2.56-.3a4.24,4.24,0,0,1-3.45,3.81c-1.22,1.18-2.2,2.16-2.93,3a15,15,0,0,1-2.53,2.2,3.87,3.87,0,0,0-1.73,2.45,8.37,8.37,0,0,0-1.24,2.27,5.17,5.17,0,0,1-2.39,2.71,19,19,0,0,0-2.71,1.61,3.92,3.92,0,0,1-1.65.88,2.33,2.33,0,0,1-1.5-.66,6.29,6.29,0,0,0-2.28-1.1,2,2,0,0,1-1.5-2.12c0-.78.91-2.42,2.71-4.91,0-.09,1.53-1.28,4.59-3.55s4.86-3.65,5.42-4.14a15.17,15.17,0,0,1,3.37-1.87,15.86,15.86,0,0,0,2.93-1.5,17.31,17.31,0,0,1,1.51-1.13,16.64,16.64,0,0,0,1.61-1.25A3.16,3.16,0,0,1,337.81,465.65Z" transform="translate(-314.5 -438.47)"/><path d="M435.6,504.83l1.54-1.24a1.85,1.85,0,0,0,1.9-1.84c.1-1.12.9-2.09,2.42-2.92l.87-1.25q1.11-1.09,6-2.86a5.68,5.68,0,0,0,1.68-1.31.43.43,0,0,1,.29-.15l1.17.29a8,8,0,0,0,2.46-.51,9,9,0,0,1,2.89-.51l3.07-.15a3.87,3.87,0,0,1,1.21.44,5.15,5.15,0,0,0,2.23.44,4,4,0,0,1,3,1.46,4.21,4.21,0,0,1,1.35,2.71,6.7,6.7,0,0,1-2.34,4.62q-2.34,2.34-3.73,2.63a8.6,8.6,0,0,1-1.9,1.58,5.33,5.33,0,0,0-1.35,1,1.87,1.87,0,0,1-1.13.7.52.52,0,0,1-.44-.18.55.55,0,0,0-.44-.19c-.78,0-1.63,1-2.56,2.86l-1.31-.15a3.88,3.88,0,0,0-1.61,1.76,1.48,1.48,0,0,1-1.54.95q-2.7,2.72-3.65,2.71a5.54,5.54,0,0,1-1-.29,2.43,2.43,0,0,0-.58,1.54q0,.88-1.17,1l-.95.88-.73-.14-1.47,1.54a4.24,4.24,0,0,0-2.26.73c-.1.58-.25,1.33-.44,2.23s-.29,1.41-.29,1.5q0,2.13,3.88,2.13l3.51-.52a4.89,4.89,0,0,0,2.6-.73,5,5,0,0,1,2.61-.73,4.75,4.75,0,0,0,1.31-.29l.74.29a4.87,4.87,0,0,1,1.9-2,4.67,4.67,0,0,1,2.2-.88l.73-.44a1.93,1.93,0,0,1,.88-1.17l.59-.51a1.64,1.64,0,0,1,1.09-.59h1l.29-.14a3.58,3.58,0,0,1,2.46-2.24,2.8,2.8,0,0,0,2-1.06A1.78,1.78,0,0,1,466,515a2.65,2.65,0,0,0,1.72-1,9.14,9.14,0,0,1,1.73-1.57c.68-.49,1.16-.86,1.43-1.1a1.15,1.15,0,0,1,.69-.37c.29,0,.44.22.44.66s.1.66.29.66a.26.26,0,0,0,.3-.29,2.31,2.31,0,0,0-.15-.73v-.52a1.44,1.44,0,0,1,1.17-1.46l3.3-2.13c.1-1,.38-1.62.84-1.79a3.25,3.25,0,0,0,1.06-.59,1.2,1.2,0,0,1,.81-.33c.63,0,1,.37,1,1.1l-.37,1.91.37,2a2.13,2.13,0,0,1-.7,1.2,5.42,5.42,0,0,0-1.06,2.35c-.24,1-.56,1.62-.95,1.72h-.44a6.22,6.22,0,0,1-2.09,1.65,2.26,2.26,0,0,0-1.21.91l-2.49,2.86c-.49.49-.91.93-1.25,1.32s-.61.58-.8.58l-.59-.58c0-.1-.1-.15-.29-.15-.49,0-.8.29-.92.88a3.26,3.26,0,0,1-.77,1.54,7.85,7.85,0,0,0-2.86,1.9l-.44.15h-1.32c-.63,0-1.07.47-1.32,1.43a2.18,2.18,0,0,1-2.09,1.64,4.58,4.58,0,0,0-2.45.88,1.69,1.69,0,0,1-.66.3,9.8,9.8,0,0,0-2,1.17l-6.16,2.2a3.13,3.13,0,0,1-.95.36l-2.06.29a1.19,1.19,0,0,1-.88-.58c-.29-.39-.49-.59-.58-.59l-1.32.44a9.51,9.51,0,0,1-2.79.44,3.24,3.24,0,0,1-1.61-.51,13.22,13.22,0,0,0-1.39-.73q-2.13,0-3-3.3l-.88.15c-.19,0-.85-1.74-2-5.2a2.5,2.5,0,0,0-1.39-.85,1.29,1.29,0,0,1-1-1.42c0-2.2.48-3.68,1.43-4.43s1.47-1.33,1.57-1.73l1-3.8a3.89,3.89,0,0,0,.73-1.47l1.68-3.08C434.48,507.05,434.92,506.2,435.6,504.83Zm15.49-4.39-.88.44a16,16,0,0,0-1.72,1.28,16.56,16.56,0,0,1-2.78,1.83c-.91.46-1.83,1.67-2.79,3.62A16.69,16.69,0,0,0,441.5,511c0,.3.14.44.43.44l2.49-1.1a11.79,11.79,0,0,0,2.6-1.68,36.76,36.76,0,0,1,3.48-2.49l.59-.59a4.9,4.9,0,0,1,1.35-1.06,7.18,7.18,0,0,0,1.8-1.5l.73-.29a5.37,5.37,0,0,1,2.53-2.42c.85-.29,1.28-.59,1.28-.88,0-.58-.46-.88-1.39-.88a4,4,0,0,0-1.76.73H454a5.39,5.39,0,0,0-1.62.88Z" transform="translate(-314.5 -438.47)"/><path d="M567.29,515.74l1.17-1a1.18,1.18,0,0,0,1.31-1,2.39,2.39,0,0,1,1.57-1.57,6.06,6.06,0,0,0,2.52-2.39c.78-1.19,1.59-1.79,2.41-1.79.29,0,.64.25,1,.73a2.18,2.18,0,0,1,.59,1.17,10.09,10.09,0,0,1-1.46,5l-.3,2-.51,1a3.22,3.22,0,0,0-1.43,1.24,5.18,5.18,0,0,1-1.72,1.61l-.73,1a3.34,3.34,0,0,0-2.16,1.68,2,2,0,0,1-1.54,1.32,4,4,0,0,0-2.16,1.47,10.91,10.91,0,0,1-1.76.66l-.14.73a5.19,5.19,0,0,1-2.31,1.17,13.06,13.06,0,0,0-2.34.84,3,3,0,0,1-1.06.41,6.07,6.07,0,0,1-2.57-.55,7.73,7.73,0,0,0-2.41-.7,1.63,1.63,0,0,1-.51-.95,3.36,3.36,0,0,0-.74-1.36,3.64,3.64,0,0,1-.65-2.3l.29-1.39a1.27,1.27,0,0,0-.37-.74,1.26,1.26,0,0,1-.36-.73.6.6,0,0,1,.14-.44.59.59,0,0,0,.15-.44,2.49,2.49,0,0,0-.15-.8,2.36,2.36,0,0,1-.14-.74l.44-3.59c0-.29-.1-.43-.3-.43s-.55.24-1.06.73a2.5,2.5,0,0,1-1.79.73,3.29,3.29,0,0,0-1,1.83,6.44,6.44,0,0,1-1.46,1.32l-.3.44c-.09.34-.46.62-1.09.84a2.6,2.6,0,0,0-1.32.84l-.73.74-1.4-.15a12.38,12.38,0,0,0-.8,1.28,5.85,5.85,0,0,1-1.69,1.87l-5.56,4.54c-.59.39-1.45.88-2.57,1.46l-.44.44c-3.91,2.59-6.66,3.89-8.28,3.89a12.32,12.32,0,0,1-4.61-1.1c-1.76-.74-2.71-1.61-2.86-2.64l-.73-3a5.29,5.29,0,0,1-.66-2.86,3,3,0,0,1,.15-1.17v-.44l-.15-2.42c0-.58.46-.88,1.39-.88l-.14-2a9.82,9.82,0,0,1,1.28-2.31,10.73,10.73,0,0,1,1.72-2.31l.73-1a2.38,2.38,0,0,1,1-1.87,10.3,10.3,0,0,0,1.76-2,9,9,0,0,1,2.49-2.27l2.2-2.2a22,22,0,0,1,5.57-4.1,7.3,7.3,0,0,0,1.8-1.47,8.69,8.69,0,0,1,3.08-1.94,20.93,20.93,0,0,0,3.37-1.57,5.7,5.7,0,0,1,2.61-.95h.58a29.78,29.78,0,0,0,3.89-1.83h.44A4.4,4.4,0,0,1,548,494h.15l1.17-.58a1.62,1.62,0,0,1,.74-.15q4.54,0,5,6.3c.1.88.35,1.32.74,1.32s1.18-.89,2.09-2.68,2.82-2.67,5.75-2.67q3.15,0,3.15,4,0,4.76-4.25,9a5.6,5.6,0,0,0-.44,1.31l-1,3V513a2.21,2.21,0,0,1-.63,1.21,2.35,2.35,0,0,0-.62,1.36l.15,1.83-.3,2.05a2.36,2.36,0,0,0,.52,1.83,6,6,0,0,0,3.39-1.94,5.12,5.12,0,0,1,1.5-1.5l.73-.29A7.18,7.18,0,0,1,567.29,515.74Zm-24.32,0a3.43,3.43,0,0,1,1.8-2.45,3.54,3.54,0,0,0,1.79-1.72,37.08,37.08,0,0,0,4-3.66c1.74-1.76,2.6-2.83,2.6-3.23,0-.14-.09-.22-.29-.22h-.15l-.58.37-1.32-.15-1.39.15-1-.51-.95.14-1.46-.29a4,4,0,0,0-2,.48,14.5,14.5,0,0,1-3.22,1.06,11.76,11.76,0,0,0-4.29,2,5.78,5.78,0,0,1-2.78,1.43c-.34.73-1.49,1.79-3.44,3.15a3.39,3.39,0,0,0-2.28,2.57,8.44,8.44,0,0,0-1.9,1.75l-.51,1.25a4.72,4.72,0,0,1-1.47.84,1.68,1.68,0,0,0-1,1.54,4.16,4.16,0,0,1-1,2.2,2.8,2.8,0,0,0-.84,1.57c0,2.39.46,3.59,1.39,3.59a8.79,8.79,0,0,0,2.45-.77,9.54,9.54,0,0,0,2.16-1.06,3.25,3.25,0,0,1,1.17-.59l1.4-.73a1.29,1.29,0,0,1,.66-.37,1.36,1.36,0,0,0,.73-.47,4.55,4.55,0,0,1,1.32-.88,3.59,3.59,0,0,0,1.46-1.28q1.24-.74,4-2.27l1.54-1.18a5.46,5.46,0,0,0,2-1.24A3.82,3.82,0,0,1,543,515.74Z" transform="translate(-314.5 -438.47)"/><path d="M589.75,499.12l1.09-.29.44-1a18.71,18.71,0,0,0,5.13-4,1.62,1.62,0,0,1,.66-.58,4.24,4.24,0,0,0,1.1-1,8.85,8.85,0,0,1,6.45-2.71c2.93,0,4.49,1.79,4.68,5.35l.44,1.1a28.13,28.13,0,0,1,1.65,4.17,18.59,18.59,0,0,1,1.06,3.89,7.37,7.37,0,0,1-1.24,4c-.69.34-2.32,2.17-4.91,5.49l-.73.52a15,15,0,0,1-1.54,2.63c-1,.35-1.47.71-1.47,1.1V519a1.4,1.4,0,0,1-.32.59,10.59,10.59,0,0,0-.92,1.68l-.59.88a3.28,3.28,0,0,0-.58,1.21,5.84,5.84,0,0,1-.84,1.65,2.13,2.13,0,0,0-.55,1.17c0,.73,1,1.1,2.85,1.1a5.55,5.55,0,0,0,1.1-.44l1,.29a2.17,2.17,0,0,0,.73-.48,4.78,4.78,0,0,1,1.79-.77,6.81,6.81,0,0,0,2.13-.87,10.14,10.14,0,0,1,2.19-1,7.56,7.56,0,0,0,2.46-1.43,8.46,8.46,0,0,1,2.3-1.43,6.6,6.6,0,0,0,2.13-1.35,16.62,16.62,0,0,1,2.23-1.72,29.89,29.89,0,0,0,4-3.52,8.51,8.51,0,0,1,2.41-1.54,8.18,8.18,0,0,0,1.28-1.94c.76-1.29,1.63-1.94,2.61-1.94s1.53.49,1.53,1.47a2.16,2.16,0,0,1-.73,1.54v.43l.15,1.18a1.25,1.25,0,0,1,.14.66c0,.19-.18.48-.55.87a3.32,3.32,0,0,0-.76,1.51,1.67,1.67,0,0,1-1.4,1.2c-.29,1.08-.67,1.69-1.13,1.84a5.76,5.76,0,0,0-1.94,1.46,31.6,31.6,0,0,1-3.52,2.93,24.21,24.21,0,0,0-3.11,2.6c-.56.61-.94.92-1.13.92a1.47,1.47,0,0,1-.59-.3,1.54,1.54,0,0,0-.59-.29c-.29,0-.48.34-.58,1l-.29.73a4.68,4.68,0,0,1-1.1.58l-.44-.14h-.29c-.59,0-.88.22-.88.66l.44.73v.15c0,.68-.4,1-1.18,1-.53,0-2.1.9-4.68,2.71l-2.13.44-1.75.95a3.55,3.55,0,0,0-1.1-.51l-1.17.37-2.13.14s-.94-.49-2.67-1.46-2.77-2-3.11-2.93a20.18,20.18,0,0,0-1.32-3,5.53,5.53,0,0,1-.81-2.09,15.13,15.13,0,0,1,.59-5,15.22,15.22,0,0,0,.73-2.24,3.79,3.79,0,0,1,.84-1.57,6.68,6.68,0,0,0,1.14-2.75,34.29,34.29,0,0,1,2.93-5.2,6.53,6.53,0,0,0,1.24-2.34l1-1.32A4.45,4.45,0,0,0,600,505c.19-.66.44-1,.73-1.13a3.86,3.86,0,0,0,.58-1.32c0-1.41-.63-2.12-1.9-2.12-.25,0-.51.25-.81.77a4.41,4.41,0,0,1-2,1.5,8.07,8.07,0,0,0-1.94,1.1,6.34,6.34,0,0,1-1.58.91,5.41,5.41,0,0,0-2.08,1.72l-1.25.59c-.39.93-.73,1.44-1,1.54s-1.19.34-2.71.73a4.6,4.6,0,0,0-.73.88,1.94,1.94,0,0,1-1.68.8,18.52,18.52,0,0,0-1.76,2,5.85,5.85,0,0,0-1.54.59l-1.47.37a6.61,6.61,0,0,0-1.28,1.39,3,3,0,0,1-2.6,1c-.73,0-1.1-.59-1.1-1.76a7.07,7.07,0,0,1,2.53-5.71c1.68-1.42,2.92-2.17,3.7-2.27a1.61,1.61,0,0,0,1.46-.88A2.44,2.44,0,0,1,583,504.5a8.25,8.25,0,0,0,2.64-2.12,7.86,7.86,0,0,1,3.26-2.24Z" transform="translate(-314.5 -438.47)"/><path d="M639.65,504.83l1.54-1.24a1.84,1.84,0,0,0,1.9-1.84c.1-1.12.91-2.09,2.42-2.92l.88-1.25q1.1-1.09,6-2.86a5.68,5.68,0,0,0,1.68-1.31.43.43,0,0,1,.3-.15l1.17.29A8,8,0,0,0,658,493a9,9,0,0,1,2.89-.51l3.07-.15a3.87,3.87,0,0,1,1.21.44,5.18,5.18,0,0,0,2.23.44,4,4,0,0,1,3,1.46,4.21,4.21,0,0,1,1.35,2.71,6.7,6.7,0,0,1-2.34,4.62q-2.34,2.34-3.72,2.63a8.84,8.84,0,0,1-1.9,1.58,5.36,5.36,0,0,0-1.36,1,1.87,1.87,0,0,1-1.13.7.53.53,0,0,1-.44-.18.54.54,0,0,0-.44-.19c-.78,0-1.63,1-2.56,2.86l-1.31-.15a3.88,3.88,0,0,0-1.61,1.76,1.48,1.48,0,0,1-1.54.95q-2.7,2.72-3.65,2.71a5.54,5.54,0,0,1-1-.29,2.43,2.43,0,0,0-.58,1.54q0,.88-1.17,1l-.95.88-.73-.14-1.46,1.54a4.27,4.27,0,0,0-2.27.73c-.1.58-.24,1.33-.44,2.23s-.29,1.41-.29,1.5q0,2.13,3.88,2.13l3.52-.52a4.94,4.94,0,0,0,2.6-.73,4.89,4.89,0,0,1,2.6-.73,4.88,4.88,0,0,0,1.32-.29l.73.29a4.94,4.94,0,0,1,1.9-2,4.67,4.67,0,0,1,2.2-.88l.73-.44a1.93,1.93,0,0,1,.88-1.17l.59-.51a1.65,1.65,0,0,1,1.1-.59h1l.3-.14a3.55,3.55,0,0,1,2.45-2.24,2.8,2.8,0,0,0,2-1.06A1.8,1.8,0,0,1,670,515a2.7,2.7,0,0,0,1.72-1,8.77,8.77,0,0,1,1.72-1.57c.68-.49,1.16-.86,1.43-1.1a1.17,1.17,0,0,1,.69-.37c.3,0,.44.22.44.66s.1.66.3.66a.26.26,0,0,0,.29-.29,2.31,2.31,0,0,0-.15-.73v-.52a1.44,1.44,0,0,1,1.17-1.46l3.3-2.13c.1-1,.38-1.62.84-1.79a3.31,3.31,0,0,0,1.07-.59,1.16,1.16,0,0,1,.8-.33c.64,0,1,.37,1,1.1l-.36,1.91.36,2a2.15,2.15,0,0,1-.69,1.2,5.31,5.31,0,0,0-1.07,2.35c-.24,1-.56,1.62-1,1.72h-.44a6.12,6.12,0,0,1-2.09,1.65,2.3,2.3,0,0,0-1.21.91l-2.49,2.86c-.49.49-.9.93-1.25,1.32s-.61.58-.8.58l-.59-.58c0-.1-.1-.15-.29-.15-.49,0-.8.29-.92.88a3.26,3.26,0,0,1-.77,1.54,8,8,0,0,0-2.86,1.9l-.44.15h-1.31c-.64,0-1.08.47-1.32,1.43a2.2,2.2,0,0,1-2.09,1.64,4.59,4.59,0,0,0-2.46.88,1.69,1.69,0,0,1-.66.3,9.8,9.8,0,0,0-2,1.17l-6.16,2.2a3,3,0,0,1-.95.36l-2.05.29a1.16,1.16,0,0,1-.88-.58c-.3-.39-.49-.59-.59-.59l-1.32.44a9.5,9.5,0,0,1-2.78.44,3.3,3.3,0,0,1-1.62-.51,12.29,12.29,0,0,0-1.39-.73q-2.13,0-3-3.3l-.89.15c-.19,0-.85-1.74-2-5.2a2.56,2.56,0,0,0-1.4-.85,1.29,1.29,0,0,1-1-1.42c0-2.2.48-3.68,1.43-4.43s1.48-1.33,1.58-1.73l1-3.8a3.89,3.89,0,0,0,.73-1.47l1.69-3.08C638.53,507.05,639,506.2,639.65,504.83Zm15.49-4.39-.88.44a16,16,0,0,0-1.72,1.28,16.56,16.56,0,0,1-2.78,1.83c-.91.46-1.83,1.67-2.78,3.62a16.4,16.4,0,0,0-1.43,3.37.38.38,0,0,0,.44.44l2.49-1.1a12.27,12.27,0,0,0,2.6-1.68,34.29,34.29,0,0,1,3.48-2.49l.58-.59a4.84,4.84,0,0,1,1.36-1.06,7.3,7.3,0,0,0,1.79-1.5l.73-.29a5.42,5.42,0,0,1,2.53-2.42c.85-.29,1.28-.59,1.28-.88,0-.58-.46-.88-1.39-.88a4,4,0,0,0-1.76.73H658a5.4,5.4,0,0,0-1.61.88Z" transform="translate(-314.5 -438.47)"/><path d="M712.24,579l-1.17.8a3,3,0,0,1-1.54.44c-1.22,0-2.4-.81-3.55-2.42a8.46,8.46,0,0,1-1.72-5c0-3.07.3-5.26.91-6.55a11.73,11.73,0,0,0,1.06-2.9s.53-1.25,1.58-3.62a27.54,27.54,0,0,1,3-5.38,35.83,35.83,0,0,0,2.34-3.45l.29-.58a7.61,7.61,0,0,1,2.13-2.42c0-.29.94-1.31,2.82-3a63.45,63.45,0,0,1,5.31-4.43l.73-1a8.12,8.12,0,0,1,2.05-1.09l4.25-1.18a34.41,34.41,0,0,1,2.85-2.27h.59l2-.58a23,23,0,0,1,5-1.36c2.27-.41,3.55-.9,3.86-1.46a17.61,17.61,0,0,0,.78-1.58c.22-.48.75-1.51,1.6-3.07.2-.83.37-1.49.52-2a1.53,1.53,0,0,1,.47-.88,4.3,4.3,0,0,0,.85-1.43,16.19,16.19,0,0,1,1.17-2.16.13.13,0,0,0,.14-.14l-.44-1.25a4.32,4.32,0,0,1,1.21-2.16c.42-.27.63-.45.63-.55l-.52-1.32,1.25-2.71a.26.26,0,0,0-.29-.29q-3.89,2.72-4.55,2.71a17.12,17.12,0,0,1-1.61,1.76,2.65,2.65,0,0,0-1.68,1.53l-.58.15-.44.73c0,.1-.17.22-.51.37a20.44,20.44,0,0,0-2.05,1.17l-.88-.14c-.19,0-.44.48-.73,1.46a5.25,5.25,0,0,1-2.38,1.79,2.59,2.59,0,0,0-1.42.77l-.59.74-.73-.15c-1,0-1.54.39-1.54,1.17a2.43,2.43,0,0,1-.87,1.54,3.46,3.46,0,0,0-1.46.44h-1.1a3.44,3.44,0,0,1-2.63,2l-2.13,1.46-1.24.44a13.61,13.61,0,0,0-1.75,1.06,6.14,6.14,0,0,1-3,.77,13.16,13.16,0,0,0-3.15-1.13q-2.13-.55-3-7.14h-.15a2.44,2.44,0,0,0-1.28.43,2.21,2.21,0,0,1-1,.44c-1.17,0-1.76-.48-1.76-1.46q0-3.3,2.49-4.32l1.83-2.27,4.69-4.62q4.92-4.91,6.61-6.3c1.12-.92,2.35-1.83,3.67-2.71l3.74-2.49a13.07,13.07,0,0,1,2.35-1.35,2.4,2.4,0,0,0,.92-.48,12.44,12.44,0,0,1,2.68-1.1l1.32-.58a22.69,22.69,0,0,1,5.29-1.39l1,.14a2.43,2.43,0,0,0,1.54-.58,6.48,6.48,0,0,0,3.16-1.61l2.64-.74a6.2,6.2,0,0,1,1.84-.36h1.39c1,0,1.7.8,2,2.41s.59,2.42.84,2.42c.1,0,.39-.36.88-1.1l1-.73a4,4,0,0,1,1.4-.73,2,2,0,0,1,2.19,1.46V498l.3.37a34.25,34.25,0,0,1,.65,4.32,8.91,8.91,0,0,1-1.5,5.49,13.54,13.54,0,0,0-1.79,2.78,47.39,47.39,0,0,1-2.93,8.94c-.25.54-.83,2-1.76,4.25l-.73.73a.46.46,0,0,0-.29.44l.14,1a6.55,6.55,0,0,0-1.24,3.15,7.73,7.73,0,0,1-1.18,2.71,9.08,9.08,0,0,0,1.29.77,9.89,9.89,0,0,1,2.56,2.35,5,5,0,0,1,1.43,2.6c0,.14-.27,1.1-.81,2.85a8,8,0,0,1-4.47,2,4.45,4.45,0,0,1-2.13-.95l-.44.14v-.29a5,5,0,0,1-1.5-.55,2.08,2.08,0,0,0-1.07-.33.52.52,0,0,0-.58.59,1.24,1.24,0,0,0,.14.58c-.29.25-.68.61-1.17,1.1a12.88,12.88,0,0,1-1,2.16,8.8,8.8,0,0,1-1.84,2.6c-1.07,0-1.8.86-2.19,2.42a5.93,5.93,0,0,1-1.39,3l-.74-.29a23.93,23.93,0,0,1-5,7.18c-1,.24-1.55.43-1.57.55s-.08.44-.15,1a5.79,5.79,0,0,1-1.76,2.42c-1.1,1.1-1.74,1.65-1.94,1.65l-.73.14-.44.44q.07,1.47-3.88,4.69c-1.42.78-2.17,1.32-2.27,1.61q-.59,1.39-4.32,3.3L716,577.12a6.14,6.14,0,0,1-1.91,1.25Zm26.43-37.65-2.19.29a2.48,2.48,0,0,0-1.25-.58c-.2,0-.34.14-.44.44-.58.78-1.88,1.43-3.88,2a12.35,12.35,0,0,0-4.07,1.65,3.75,3.75,0,0,1-1.79.92c-.49,0-.73.14-.73.29a7.66,7.66,0,0,0-1.1,1,5.4,5.4,0,0,0-1.47.92,3.32,3.32,0,0,1-1.53.77c-.88,1.9-1.52,2.86-1.91,2.86a4.25,4.25,0,0,1-.73-.15h-.15A6.12,6.12,0,0,1,716,554a2.51,2.51,0,0,0-.88.84,4.6,4.6,0,0,1-1.43,1.21,3.38,3.38,0,0,0-1.43,2.23,4.55,4.55,0,0,1-.91,2.12,4.18,4.18,0,0,0-.7,2.46l-.44,1a15.34,15.34,0,0,0-.62,2.53c-.27,1.39-.4,2.11-.4,2.16a2.43,2.43,0,0,0,.88,1.83,2,2,0,0,1,1.24-.51l4.32-1.76c.15-.1.68-.55,1.61-1.35a8,8,0,0,1,2.46-1.58,4.74,4.74,0,0,0,1.94-1.32A5.37,5.37,0,0,1,723,562.4a2.16,2.16,0,0,0,1-1.47c1.13-1,2.15-1.89,3.08-2.74a8.15,8.15,0,0,0,1.8-2.13,3.46,3.46,0,0,1,1.28-1.42l.29-1a3.1,3.1,0,0,1,.62-.18c.32-.07.84-.87,1.58-2.38l2-3.3a13.13,13.13,0,0,0,2.86-4.46l1-.88a.68.68,0,0,0,.29-.66ZM737.36,518l.88-1.24a2.78,2.78,0,0,1,1.51-.88,3,3,0,0,0,1.72-1.24,11.06,11.06,0,0,1,4.17-3.67l.73-.51q1.11-2.12,2-2.31a2.44,2.44,0,0,0,1.54-1.31,4,4,0,0,0,.66-1.87c0-.2-.15-.3-.44-.3a2.9,2.9,0,0,0-1.8.59,2.41,2.41,0,0,1-1.06.59l-1.46-.15c-.88.49-2.1,1.07-3.66,1.76l-1.32,1.1a4.74,4.74,0,0,1-1.58.73,1.51,1.51,0,0,0-1.06.91c-.24.52-.56.77-.95.77l-.59.3a2.9,2.9,0,0,1-1.68.29,7.33,7.33,0,0,0-1.5,1.24c-.52.54-.82.81-.92.81a8.3,8.3,0,0,1-2.89,2.27,2.57,2.57,0,0,0-1.58,1.25,4.18,4.18,0,0,0-2.34,1.64,7,7,0,0,1-1.72,1.76,5.38,5.38,0,0,0-1.36,1.21l-.73.59a5.47,5.47,0,0,0-1.21,1.94,6.79,6.79,0,0,0-.77,2.3c0,.3.17.44.52.44a7.66,7.66,0,0,0,2.74-1.06,12.12,12.12,0,0,0,2.6-1.65c.39-.39.66-.58.81-.58l2.78.14a2.19,2.19,0,0,1,1.5-1.24,2.73,2.73,0,0,0,1.65-1.25c.39-.63,1.49-1.31,3.3-2l.8-1.32Z" transform="translate(-314.5 -438.47)"/><path d="M780.2,504.83l1.54-1.24a1.84,1.84,0,0,0,1.9-1.84c.1-1.12.91-2.09,2.42-2.92l.88-1.25q1.09-1.09,6-2.86a5.89,5.89,0,0,0,1.69-1.31.4.4,0,0,1,.29-.15l1.17.29a8,8,0,0,0,2.45-.51,9,9,0,0,1,2.89-.51l3.08-.15a3.93,3.93,0,0,1,1.2.44,5.2,5.2,0,0,0,2.24.44,4,4,0,0,1,3,1.46,4.23,4.23,0,0,1,1.36,2.71,6.74,6.74,0,0,1-2.34,4.62c-1.56,1.56-2.81,2.44-3.73,2.63a8.84,8.84,0,0,1-1.9,1.58,5.54,5.54,0,0,0-1.36,1,1.87,1.87,0,0,1-1.13.7.54.54,0,0,1-.44-.18.54.54,0,0,0-.44-.19c-.78,0-1.63,1-2.55,2.86l-1.32-.15a3.88,3.88,0,0,0-1.61,1.76,1.46,1.46,0,0,1-1.53.95q-2.71,2.72-3.66,2.71a5.33,5.33,0,0,1-1-.29,2.44,2.44,0,0,0-.59,1.54q0,.88-1.17,1l-1,.88-.73-.14-1.46,1.54a4.27,4.27,0,0,0-2.27.73c-.1.58-.24,1.33-.44,2.23s-.29,1.41-.29,1.5q0,2.13,3.88,2.13l3.52-.52a4.92,4.92,0,0,0,2.6-.73,4.89,4.89,0,0,1,2.6-.73,4.88,4.88,0,0,0,1.32-.29l.73.29a4.9,4.9,0,0,1,1.91-2,4.65,4.65,0,0,1,2.19-.88l.74-.44a1.89,1.89,0,0,1,.87-1.17l.59-.51a1.65,1.65,0,0,1,1.1-.59h1l.3-.14a3.55,3.55,0,0,1,2.45-2.24,2.8,2.8,0,0,0,2-1.06,1.8,1.8,0,0,1,1.43-.88,2.7,2.7,0,0,0,1.72-1,9.06,9.06,0,0,1,1.72-1.57c.68-.49,1.16-.86,1.43-1.1a1.17,1.17,0,0,1,.7-.37c.29,0,.44.22.44.66s.09.66.29.66a.26.26,0,0,0,.29-.29,2.31,2.31,0,0,0-.15-.73v-.52a1.44,1.44,0,0,1,1.18-1.46l3.29-2.13c.1-1,.38-1.62.85-1.79a3.36,3.36,0,0,0,1.06-.59,1.16,1.16,0,0,1,.8-.33c.64,0,1,.37,1,1.1l-.37,1.91.37,2a2.19,2.19,0,0,1-.7,1.2,5.2,5.2,0,0,0-1.06,2.35c-.25,1-.57,1.62-1,1.72H822a6.12,6.12,0,0,1-2.09,1.65,2.3,2.3,0,0,0-1.21.91l-2.49,2.86c-.49.49-.9.93-1.24,1.32s-.62.58-.81.58l-.59-.58c0-.1-.09-.15-.29-.15-.49,0-.79.29-.92.88a3.17,3.17,0,0,1-.77,1.54,7.88,7.88,0,0,0-2.85,1.9l-.44.15H807c-.64,0-1.08.47-1.32,1.43a2.19,2.19,0,0,1-2.09,1.64,4.59,4.59,0,0,0-2.46.88,1.69,1.69,0,0,1-.66.3,10.06,10.06,0,0,0-2.05,1.17l-6.16,2.2a3,3,0,0,1-1,.36l-2,.29a1.16,1.16,0,0,1-.88-.58c-.29-.39-.49-.59-.59-.59l-1.32.44a9.4,9.4,0,0,1-2.78.44,3.3,3.3,0,0,1-1.62-.51,12.29,12.29,0,0,0-1.39-.73q-2.13,0-3-3.3l-.88.15c-.2,0-.86-1.74-2-5.2a2.53,2.53,0,0,0-1.39-.85,1.28,1.28,0,0,1-1-1.42c0-2.2.48-3.68,1.43-4.43s1.48-1.33,1.58-1.73l1-3.8a3.74,3.74,0,0,0,.73-1.47l1.69-3.08C779.08,507.05,779.52,506.2,780.2,504.83Zm15.49-4.39-.87.44a15.65,15.65,0,0,0-1.73,1.28,16.56,16.56,0,0,1-2.78,1.83q-1.35.69-2.78,3.62A17.09,17.09,0,0,0,786.1,511a.39.39,0,0,0,.44.44l2.49-1.1a12,12,0,0,0,2.6-1.68,35.48,35.48,0,0,1,3.48-2.49l.58-.59a4.84,4.84,0,0,1,1.36-1.06,7.3,7.3,0,0,0,1.79-1.5l.74-.29a5.4,5.4,0,0,1,2.52-2.42c.86-.29,1.28-.59,1.28-.88,0-.58-.46-.88-1.39-.88a4,4,0,0,0-1.75.73h-1.69a5.4,5.4,0,0,0-1.61.88Z" transform="translate(-314.5 -438.47)"/><path d="M840.05,468.5l1-.29.73-.73H842l.66.29h.15a6.7,6.7,0,0,0,3.12-.7,15.7,15.7,0,0,1,2.29-1,6.23,6.23,0,0,0,1.15-.44.72.72,0,0,1,.37-.15l1.19.15c.39,0,.91-.7,1.57-2.09a8.11,8.11,0,0,1,2.23-3,9.76,9.76,0,0,0,2.49-3.59,6.63,6.63,0,0,0,.66-1.13c.24-.52.44-.77.58-.77.74,0,1.32-.47,1.76-1.4,1.46-1.7,2.66-2.56,3.59-2.56q1.83,0,2.56,3.52l.73,2.78a10.86,10.86,0,0,1-.36,1.06,4.91,4.91,0,0,0-.33,2,4.36,4.36,0,0,1-.08,1.32,2.51,2.51,0,0,0-.11.77c0,.39.42.58,1.25.58a4.57,4.57,0,0,0,1.61-.58l.44-.15a2.58,2.58,0,0,0,1.24.44,18.88,18.88,0,0,0,2.09-.73,16.9,16.9,0,0,1,2.45-.81,8.72,8.72,0,0,0,1.76-.58h.88l.59.22a3.25,3.25,0,0,0,1.21-.63,7.58,7.58,0,0,1,3.47-.77l1-.44h.29c1.61,0,2.42.71,2.42,2.13a3.72,3.72,0,0,1-.7,1.54,10.53,10.53,0,0,0-1.13,2.49l-3.37,4.25c-1.12,1.46-2.25,2.19-3.37,2.19-.19,0-.81-.66-1.83-2,0-.09-.1-.14-.29-.14a4.64,4.64,0,0,0-1.54.29,4,4,0,0,1-1.32.29c-.15,0-1.44.37-3.88,1.1l-1.76.3a7.17,7.17,0,0,0-1.39.29l-3.74.73a6.61,6.61,0,0,0-3,3.59c0,.1-.25.32-.74.66l-3.3,6a2.89,2.89,0,0,0-2.12,1.9l-.3.44a2.55,2.55,0,0,0-1.47.91,7.68,7.68,0,0,1-1.24,1.21l-1.32,2c-.54.69-1.08,1.43-1.62,2.23A8.51,8.51,0,0,0,846.3,494a4.84,4.84,0,0,1-.59,1.57,1.14,1.14,0,0,0-.22.81l-.22.58a2.73,2.73,0,0,0-.88,2l.29,1.17c-.68,2.35-1,3.59-1,3.74a4.76,4.76,0,0,0,.14.8v.44a9.71,9.71,0,0,1-1.17,4l.15,1.17-.44,3.3a11.61,11.61,0,0,0,.44,2.42c-.2.19-.3.34-.3.44a7.11,7.11,0,0,0,2.17,4.5q2.16,2.46,2.16,7.65a5.36,5.36,0,0,1-.22,1.29,10,10,0,0,0-.29,1.83,3,3,0,0,1-1.14,1.94,3,3,0,0,1-1.8.95q-3.89,0-5.79-5.64c-1.28-3.76-1.91-6.18-1.91-7.25l.15-2.86-.44-1.46.44-6.45-.3-1.53,1.69-6.3v-2.27a5.09,5.09,0,0,1,1-1.18c0-.09-.1-.14-.3-.14s-.68.29-1.17.88a10.46,10.46,0,0,1-1.84,1.68l-.58,1a1.65,1.65,0,0,0-.59-.3,17.41,17.41,0,0,0-2.42,3.45,3.22,3.22,0,0,0-2.42,1.75,2.69,2.69,0,0,1-2.42,1.54l-.3.15c-.19,1.42-.88,2.12-2.05,2.12l-.29.15c-.74,1.66-1.5,2.47-2.28,2.42a4.81,4.81,0,0,1-3.6,3,3,3,0,0,1-1.28,1.32,5.33,5.33,0,0,0-1.21.8,1,1,0,0,1-.66.37c-.64,0-1-.68-1-2a2.35,2.35,0,0,1,.47-1.28,2.3,2.3,0,0,0,.48-1c0-.1-.24-.39-.73-.88,0-1.51.39-2.47,1.17-2.86a3.93,3.93,0,0,0,1.76-1.68,2.24,2.24,0,0,1,1.46-1.25c.74-.24,1.11-.56,1.11-.95s.63-1,1.9-2.05a18.28,18.28,0,0,0,2.79-2.67q.87-1.14,1.47-1.14l.29-.29c.1-1.22.56-1.83,1.39-1.83l.73-.44.15-.59.44-.29h.59l.37-.29a3.58,3.58,0,0,1,1.72-2.86,39.08,39.08,0,0,0,5.75-5.75c2.79-3.15,4.35-5.16,4.7-6a23.88,23.88,0,0,1,1.87-3.55,9.68,9.68,0,0,0,1.5-4.22,2.22,2.22,0,0,0-.44-.58l-3.15,1.54c0-.15-.49-.37-1.46-.66a5.84,5.84,0,0,0-1.61,1.31q-.52.66-.81.66l-1-.14-3.22.36a14.79,14.79,0,0,0-6.52,1.76l-3,.88h-.66a4,4,0,0,0-1.76.73l-1.68-.14a8.6,8.6,0,0,1-3.44,1.24,8.51,8.51,0,0,1-.88-.14l-7.47,2a18.08,18.08,0,0,0-4,3l-.58.15c-.49,0-1.07-.55-1.73-1.65a6,6,0,0,1-1-3q0-7.25,12.45-8.42l3-1.17h.15l.8.29h.29a3.3,3.3,0,0,0,1.4-.55,19.26,19.26,0,0,1,4.24-1.35l3-.81.95.15a3.16,3.16,0,0,0,1.65-.59,7.09,7.09,0,0,1,2.78-.84,12.77,12.77,0,0,0,2.6-.55l1.17-.29a3.55,3.55,0,0,0,1.21-.52,4.86,4.86,0,0,1,2.38-.51A5.46,5.46,0,0,1,840.05,468.5Z" transform="translate(-314.5 -438.47)"/><path d="M881.58,468.5l1-.29.74-.73h.14l.66.29h.15a6.7,6.7,0,0,0,3.12-.7,15.25,15.25,0,0,1,2.29-1,6.23,6.23,0,0,0,1.15-.44.72.72,0,0,1,.37-.15l1.18.15c.39,0,.92-.7,1.58-2.09a8.11,8.11,0,0,1,2.23-3,9.76,9.76,0,0,0,2.49-3.59,6.63,6.63,0,0,0,.66-1.13c.24-.52.44-.77.58-.77.73,0,1.32-.47,1.76-1.4,1.46-1.7,2.66-2.56,3.59-2.56,1.21,0,2.07,1.17,2.56,3.52l.73,2.78a9.69,9.69,0,0,1-.37,1.06,5.28,5.28,0,0,0-.33,2,4.47,4.47,0,0,1-.07,1.32,2.51,2.51,0,0,0-.11.77c0,.39.42.58,1.25.58a4.57,4.57,0,0,0,1.61-.58l.44-.15a2.55,2.55,0,0,0,1.24.44,18.88,18.88,0,0,0,2.09-.73,16.9,16.9,0,0,1,2.45-.81,8.93,8.93,0,0,0,1.76-.58h.88l.59.22a3.17,3.17,0,0,0,1.2-.63,7.6,7.6,0,0,1,3.48-.77l1-.44H926c1.61,0,2.42.71,2.42,2.13a3.72,3.72,0,0,1-.7,1.54,10.53,10.53,0,0,0-1.13,2.49l-3.37,4.25c-1.13,1.46-2.25,2.19-3.37,2.19q-.3,0-1.83-2c0-.09-.1-.14-.3-.14a4.58,4.58,0,0,0-1.53.29,4,4,0,0,1-1.32.29c-.15,0-1.44.37-3.88,1.1l-1.76.3a7,7,0,0,0-1.39.29l-3.74.73a6.67,6.67,0,0,0-3,3.59c0,.1-.24.32-.73.66l-3.3,6a2.9,2.9,0,0,0-2.13,1.9l-.29.44a2.55,2.55,0,0,0-1.47.91,7.68,7.68,0,0,1-1.24,1.21l-1.33,2c-.53.69-1.07,1.43-1.61,2.23a8.51,8.51,0,0,0-1.17,2.57,4.84,4.84,0,0,1-.59,1.57,1.14,1.14,0,0,0-.22.81l-.22.58a2.73,2.73,0,0,0-.88,2l.29,1.17c-.68,2.35-1,3.59-1,3.74a5.31,5.31,0,0,0,.15.8v.44a9.71,9.71,0,0,1-1.17,4l.14,1.17-.44,3.3a12.35,12.35,0,0,0,.44,2.42c-.19.19-.29.34-.29.44a7.14,7.14,0,0,0,2.16,4.5q2.18,2.46,2.17,7.65a5.36,5.36,0,0,1-.22,1.29,9.22,9.22,0,0,0-.29,1.83,3,3,0,0,1-1.14,1.94,3,3,0,0,1-1.8.95q-3.89,0-5.8-5.64t-1.9-7.25l.14-2.86-.44-1.46.44-6.45-.29-1.53,1.69-6.3v-2.27a5.18,5.18,0,0,1,1-1.18c0-.09-.09-.14-.29-.14s-.68.29-1.17.88a10.46,10.46,0,0,1-1.84,1.68l-.58,1a1.65,1.65,0,0,0-.59-.3,16.94,16.94,0,0,0-2.42,3.45,3.22,3.22,0,0,0-2.42,1.75,2.69,2.69,0,0,1-2.42,1.54l-.3.15c-.19,1.42-.88,2.12-2.05,2.12l-.3.15c-.73,1.66-1.49,2.47-2.27,2.42a4.81,4.81,0,0,1-3.6,3,3,3,0,0,1-1.28,1.32,5.11,5.11,0,0,0-1.21.8,1,1,0,0,1-.66.37c-.64,0-1-.68-1-2a2.3,2.3,0,0,1,.48-1.28,2.3,2.3,0,0,0,.48-1c0-.1-.25-.39-.74-.88,0-1.51.4-2.47,1.18-2.86a3.93,3.93,0,0,0,1.76-1.68,2.24,2.24,0,0,1,1.46-1.25c.74-.24,1.1-.56,1.1-.95s.64-1,1.91-2.05a18.28,18.28,0,0,0,2.79-2.67c.58-.76,1.07-1.14,1.46-1.14l.3-.29c.09-1.22.56-1.83,1.39-1.83l.73-.44.15-.59.44-.29h.59l.36-.29a3.59,3.59,0,0,1,1.73-2.86,39.08,39.08,0,0,0,5.75-5.75c2.79-3.15,4.35-5.16,4.7-6a24.62,24.62,0,0,1,1.86-3.55,9.58,9.58,0,0,0,1.51-4.22,2.47,2.47,0,0,0-.44-.58l-3.15,1.54c0-.15-.49-.37-1.46-.66a5.91,5.91,0,0,0-1.62,1.31c-.34.44-.61.66-.8.66l-1-.14-3.22.36a14.79,14.79,0,0,0-6.52,1.76l-3,.88h-.66a4,4,0,0,0-1.76.73l-1.68-.14a4.61,4.61,0,0,1-4.32,1.1l-7.47,2a18.08,18.08,0,0,0-4,3l-.59.15c-.48,0-1.06-.55-1.72-1.65a5.92,5.92,0,0,1-1-3q0-7.25,12.46-8.42l3-1.17H858l.81.29h.29a3.23,3.23,0,0,0,1.39-.55,19.62,19.62,0,0,1,4.25-1.35l3-.81,1,.15a3.19,3.19,0,0,0,1.65-.59,7,7,0,0,1,2.78-.84,12.93,12.93,0,0,0,2.6-.55l1.17-.29a3.55,3.55,0,0,0,1.21-.52,4.86,4.86,0,0,1,2.38-.51A5.46,5.46,0,0,1,881.58,468.5Z" transform="translate(-314.5 -438.47)"/><path d="M901.46,509.3l1.18-1h.44c.34,0,.85-.36,1.54-1.1l.73-.29a6.17,6.17,0,0,1,2.57-2.56l1.17-.88a2.46,2.46,0,0,1,.84-.51,7,7,0,0,0,1.76-1.43,3.31,3.31,0,0,1,1.95-1.21,3.74,3.74,0,0,1,1.17.15,4.67,4.67,0,0,1,1.76-1.72,7.5,7.5,0,0,0,2.13-2l.95-.44a8,8,0,0,0,2.09-1.5,3.22,3.22,0,0,1,2.38-.92,6.67,6.67,0,0,1,4.43,2.17q2.31,2.16,2.31,4.13l-1.24,5.72c-.83,4.2-1.76,6.39-2.79,6.59l-.29,1.54c-.68.49-1,.88-1,1.17l.44,1.76c0,.24-.26.61-.8,1.09-.1,0-.15.15-.15.44v3c0,.54-.34,1-1,1.32a1.75,1.75,0,0,0,.44.29,3,3,0,0,1,2-.44l1.17.15,1.61-1.62a6.51,6.51,0,0,0,1.43-.69,24.29,24.29,0,0,1,3.11-1.43l9.58-7.32q2-2,3-2c.73,0,1.1.46,1.1,1.39a5.15,5.15,0,0,1-.63,2.67,14.51,14.51,0,0,0-1.13,2.57,4.68,4.68,0,0,1-1.21,2.08,5.66,5.66,0,0,0-1.13,1.29,9.62,9.62,0,0,1-2.38,2,22.47,22.47,0,0,0-3.3,2.67,15.66,15.66,0,0,1-2.23,1.94l-3.15,2.27-.44.74a6.84,6.84,0,0,1-1.36.62,9.06,9.06,0,0,0-2.16,1.21l-1.31.73a3.06,3.06,0,0,1-1.43.37,2.57,2.57,0,0,0-1.72.84c-.49.51-.88.77-1.17.77l-1.1-.15-1.47.44a5.22,5.22,0,0,1-3-1.5,4.22,4.22,0,0,1-1.79-3.19v-.44l.15-1a6.73,6.73,0,0,0-.44-1.5,8.55,8.55,0,0,1-.44-1.36l.14-1-.14-.44a6.24,6.24,0,0,1,.29-2.49,4.48,4.48,0,0,0,.44-1.43c.1-.61.19-1.11.29-1.5l.37-1.83a2.22,2.22,0,0,1,.73-1.18c.1-.39.29-1,.59-2l.29-1.32.73-1a2.57,2.57,0,0,0,.7-1.57,5.16,5.16,0,0,1,.77-2.09,4.73,4.73,0,0,0,.66-1.32.78.78,0,0,0-.88-.88,6.44,6.44,0,0,0-1.83,1.18l-1.32-.44c-.1,0-.37.24-.81.73,0,.19-.22.34-.66.44a2.14,2.14,0,0,0-1.24,1.1l-.59.14-.95-.44h-.3c-.48,0-.78.54-.87,1.62a3.72,3.72,0,0,1-2.13,1.53l-1.61.44a2,2,0,0,0-1.17,1.32,4.19,4.19,0,0,1-1.47,1.87,3.59,3.59,0,0,1-1.46.84c-1.37,0-2.06-.76-2.06-2.27l.59-3.44Zm31.64-36.62-.43-2.86v-.44q0-3.44,2.34-3.81a24.68,24.68,0,0,0,3.07-.95,5.22,5.22,0,0,1,2.75,2.31,6.45,6.45,0,0,1,1.43,3.55,2.23,2.23,0,0,1-.22.66,6.16,6.16,0,0,0-.29,1.94,3.36,3.36,0,0,1-1.43,2.49,4.61,4.61,0,0,1-2.89,1.06,4.36,4.36,0,0,1-2.6-1.43A4.66,4.66,0,0,1,933.1,472.68Z" transform="translate(-314.5 -438.47)"/><path d="M1011.37,520.29h.29l.74.29a.43.43,0,0,0,.29-.15,2.58,2.58,0,0,1,1.17-2.12,3.37,3.37,0,0,1,1.66-2.13c.85-.48,2.21-1.29,4.07-2.41l1.84-1.61.88-.44.58-.74a2.21,2.21,0,0,1,1.55-1c.73,0,1.1.27,1.1.81l-.66,1.46.29,2.42a3.41,3.41,0,0,1-.92,2.34c-.61.69-1.55,1.69-2.82,3l-3.74,3.95-2,1a6.64,6.64,0,0,0-1.32,1l-2.86,2.42a1.83,1.83,0,0,1-.66,1.54h-1.17l-.59.29c-.34.93-1.35,1.83-3,2.71l-1,.73a1.56,1.56,0,0,1-1,.44l-2-.29-1.4.29a3.38,3.38,0,0,1-1.57-.58,9.85,9.85,0,0,0-2-.92c-.68-.22-1.55-1.12-2.6-2.71a13.07,13.07,0,0,1-1.73-3.11,2.75,2.75,0,0,0-.33-1,3.6,3.6,0,0,1-.33-.84,8.77,8.77,0,0,1,.66-1.47v-.15a3.43,3.43,0,0,0-.4-1,4.4,4.4,0,0,1-.4-2,4.54,4.54,0,0,0-.44-1.68c.39-.39.58-.69.58-.88a2.53,2.53,0,0,0-.21-.84,2.52,2.52,0,0,1-.23-.85l.44-3.59-.29-1.83L992,509c0-1-.44-1.54-1.32-1.54a2.49,2.49,0,0,0-1.46.8l-.51.15a18.21,18.21,0,0,0-2.77,1.57,2.68,2.68,0,0,1-1.68.63,4.07,4.07,0,0,1-1.68.8l-.58.44a8.26,8.26,0,0,1-1.17.88,15.63,15.63,0,0,1-2.74,2.45c-1.82,1.5-3.46,2.9-4.92,4.22a8.7,8.7,0,0,1-3.18,2.16c-.65.12-1,.74-1,1.86,0,.2-.44.59-1.32,1.18a9.64,9.64,0,0,0-1.53,1.61,6.48,6.48,0,0,0-1.31-.88c-.64,0-1.1.8-1.4,2.42-.29.63-1.07,1-2.35,1.17a3.13,3.13,0,0,0-.51,1.1l-.29.29h-.74a4,4,0,0,0-1,.84,4.42,4.42,0,0,1-1.54,1.06c-.64,1.32-1.17,2-1.61,2a2.1,2.1,0,0,1-.85-.29,6.06,6.06,0,0,0-1.36-.51c-.53-.15-1.13-.75-1.79-1.8a5.32,5.32,0,0,1-1-2.67q0-8.13,3.15-8.86l.15-.3v-.58a1.4,1.4,0,0,1,.84-1.36,5,5,0,0,0,1.72-1.61,5.6,5.6,0,0,1,1.17-1.35h1c.2,0,.3-.52.3-1.54a1.14,1.14,0,0,1,.36-.81,1.67,1.67,0,0,0,.44-1.06,6.78,6.78,0,0,1,1.06-2.27,7,7,0,0,0,1-1.87l-.14-.29a7.18,7.18,0,0,1-2.64,1.83c-.54.1-1.27.81-2.2,2.12l-1.17-.22a28.29,28.29,0,0,1-3.81,2.57,4,4,0,0,0-1.62,1.68.6.6,0,0,1-.51.59,8.15,8.15,0,0,0-1.91,1.17H947c-1.23,0-1.84-.88-1.84-2.64l1.54-4.17a6.09,6.09,0,0,1,3.11-3.33A38.75,38.75,0,0,0,954,504a6.1,6.1,0,0,1,3.37-1.32l.51-.74a5.55,5.55,0,0,0,3.36-3c.59-1.36,1.4-2.05,2.42-2.05a7.1,7.1,0,0,1,6.15,3c1.41,2,2.12,3.55,2.12,4.72l.14,2a13.24,13.24,0,0,1-.43,2.86,4.14,4.14,0,0,0-.88,2c0,.39.24.59.73.59a2.14,2.14,0,0,0,1.17-.62,10,10,0,0,1,1.65-1.14,2.37,2.37,0,0,0,1.06-.88A4.16,4.16,0,0,1,977.9,507a7.33,7.33,0,0,0,2.27-1.1l.73-.59.59-1.1a8.16,8.16,0,0,0,2.63-1.61,3,3,0,0,1,1.76-.95,6.31,6.31,0,0,0,2.49-1.32l1.09-.29,1-.59a2.57,2.57,0,0,1,.87-.37c.49-.14,1.21-.4,2.16-.76a6.72,6.72,0,0,1,1.94-.55,6.87,6.87,0,0,1,5.89,3q2.16,3,2.16,4.83l-.14,1.32.29,2v.29l-.59,4,.15,1.39c0,2.3-.49,3.88-1.47,4.76-.24.1-.36.35-.36.74v.65l1.46,3.08c.44,1.08.78,1.61,1,1.61l2.35-.66a2.82,2.82,0,0,0,1.69-1.54,10.75,10.75,0,0,0,2.05-1.75C1010.27,520.68,1010.73,520.29,1011.37,520.29Z" transform="translate(-314.5 -438.47)"/><path d="M1021.32,579l-1.17.8a3,3,0,0,1-1.54.44c-1.22,0-2.4-.81-3.55-2.42a8.46,8.46,0,0,1-1.72-5c0-3.07.3-5.26.91-6.55a11.87,11.87,0,0,0,1.07-2.9s.52-1.25,1.57-3.62a27.54,27.54,0,0,1,3-5.38,34.08,34.08,0,0,0,2.34-3.45l.29-.58a7.86,7.86,0,0,1,2.13-2.42c0-.29.94-1.31,2.82-3a63.45,63.45,0,0,1,5.31-4.43l.73-1a8.3,8.3,0,0,1,2-1.09l4.25-1.18a33.43,33.43,0,0,1,2.86-2.27h.58l2-.58a23,23,0,0,1,5-1.36c2.26-.41,3.54-.9,3.85-1.46a17.61,17.61,0,0,0,.78-1.58c.22-.48.75-1.51,1.61-3.07q.29-1.25.51-2c.15-.49.3-.78.48-.88a4.18,4.18,0,0,0,.84-1.43,16.19,16.19,0,0,1,1.17-2.16c.1,0,.15,0,.15-.14l-.44-1.25a4.24,4.24,0,0,1,1.21-2.16c.41-.27.62-.45.62-.55l-.52-1.32,1.25-2.71a.26.26,0,0,0-.29-.29q-3.89,2.72-4.54,2.71a18.43,18.43,0,0,1-1.61,1.76,2.67,2.67,0,0,0-1.69,1.53l-.58.15-.44.73c0,.1-.17.22-.51.37a23.07,23.07,0,0,0-2,1.17l-.88-.14c-.19,0-.44.48-.73,1.46a5.25,5.25,0,0,1-2.38,1.79,2.59,2.59,0,0,0-1.42.77l-.59.74-.73-.15q-1.53,0-1.53,1.17a2.45,2.45,0,0,1-.88,1.54,3.46,3.46,0,0,0-1.46.44h-1.1a3.42,3.42,0,0,1-2.63,2l-2.12,1.46-1.25.44a13.61,13.61,0,0,0-1.75,1.06,6.14,6.14,0,0,1-3,.77,13.16,13.16,0,0,0-3.15-1.13q-2.12-.55-3-7.14h-.15a2.46,2.46,0,0,0-1.28.43,2.21,2.21,0,0,1-1,.44c-1.17,0-1.76-.48-1.76-1.46,0-2.2.84-3.64,2.49-4.32l1.84-2.27,4.68-4.62q4.92-4.91,6.61-6.3c1.13-.92,2.35-1.83,3.67-2.71l3.74-2.49a13.07,13.07,0,0,1,2.35-1.35,2.4,2.4,0,0,0,.92-.48,12.44,12.44,0,0,1,2.68-1.1l1.32-.58a22.81,22.81,0,0,1,5.29-1.39l1,.14a2.45,2.45,0,0,0,1.54-.58,6.5,6.5,0,0,0,3.15-1.61l2.65-.74a6.09,6.09,0,0,1,1.83-.36h1.4c1,0,1.69.8,2,2.41s.6,2.42.84,2.42.39-.36.88-1.1l1-.73a3.94,3.94,0,0,1,1.39-.73,2,2,0,0,1,2.19,1.46V498l.3.37a35.15,35.15,0,0,1,.66,4.32,8.84,8.84,0,0,1-1.51,5.49,14,14,0,0,0-1.79,2.78,47.39,47.39,0,0,1-2.93,8.94c-.24.54-.83,2-1.76,4.25l-.73.73a.46.46,0,0,0-.29.44l.14,1a6.55,6.55,0,0,0-1.24,3.15,7.53,7.53,0,0,1-1.18,2.71,9.08,9.08,0,0,0,1.29.77,9.73,9.73,0,0,1,2.56,2.35,5,5,0,0,1,1.43,2.6c0,.14-.27,1.1-.8,2.85a8.05,8.05,0,0,1-4.48,2,4.39,4.39,0,0,1-2.12-.95l-.44.14v-.29a5.11,5.11,0,0,1-1.51-.55,2.07,2.07,0,0,0-1.06-.33.52.52,0,0,0-.59.59,1.25,1.25,0,0,0,.15.58c-.3.25-.69.61-1.18,1.1a12,12,0,0,1-1,2.16,8.81,8.81,0,0,1-1.83,2.6c-1.08,0-1.81.86-2.2,2.42a5.93,5.93,0,0,1-1.39,3l-.73-.29a24.11,24.11,0,0,1-5,7.18c-1,.24-1.55.43-1.57.55l-.15,1a5.84,5.84,0,0,1-1.75,2.42q-1.65,1.65-2,1.65l-.73.14-.44.44q.07,1.47-3.88,4.69c-1.42.78-2.17,1.32-2.27,1.61q-.58,1.39-4.32,3.3l-1.39,1.24a6.14,6.14,0,0,1-1.91,1.25Zm26.43-37.65-2.19.29a2.45,2.45,0,0,0-1.25-.58c-.19,0-.34.14-.44.44-.58.78-1.88,1.43-3.88,2a12.18,12.18,0,0,0-4.06,1.65,3.82,3.82,0,0,1-1.8.92c-.49,0-.73.14-.73.29a7.66,7.66,0,0,0-1.1,1,5.21,5.21,0,0,0-1.46.92,3.4,3.4,0,0,1-1.54.77c-.88,1.9-1.52,2.86-1.91,2.86a4.25,4.25,0,0,1-.73-.15h-.15a6.12,6.12,0,0,1-1.46,2.2,2.6,2.6,0,0,0-.88.84,4.6,4.6,0,0,1-1.43,1.21,3.42,3.42,0,0,0-1.43,2.23,4.45,4.45,0,0,1-.91,2.12,4.18,4.18,0,0,0-.7,2.46l-.44,1a15.34,15.34,0,0,0-.62,2.53c-.27,1.39-.4,2.11-.4,2.16a2.43,2.43,0,0,0,.88,1.83,2,2,0,0,1,1.24-.51l4.32-1.76c.15-.1.69-.55,1.61-1.35a8,8,0,0,1,2.46-1.58,4.68,4.68,0,0,0,1.94-1.32,5.52,5.52,0,0,1,1.43-1.46,2.21,2.21,0,0,0,1-1.47c1.12-1,2.14-1.89,3.07-2.74a8.15,8.15,0,0,0,1.8-2.13,3.46,3.46,0,0,1,1.28-1.42l.29-1a3.33,3.33,0,0,1,.62-.18c.32-.07.85-.87,1.58-2.38l2-3.3a13.26,13.26,0,0,0,2.85-4.46l1-.88a.68.68,0,0,0,.29-.66Zm-1.3-23.37.88-1.24a2.72,2.72,0,0,1,1.5-.88,3,3,0,0,0,1.72-1.24,11.06,11.06,0,0,1,4.17-3.67l.74-.51c.73-1.41,1.39-2.18,2-2.31a2.44,2.44,0,0,0,1.54-1.31,4,4,0,0,0,.66-1.87c0-.2-.15-.3-.44-.3a2.87,2.87,0,0,0-1.79.59,2.48,2.48,0,0,1-1.07.59l-1.46-.15c-.88.49-2.1,1.07-3.66,1.76l-1.32,1.1a4.74,4.74,0,0,1-1.58.73,1.53,1.53,0,0,0-1.06.91c-.24.52-.56.77-1,.77l-.59.3a2.87,2.87,0,0,1-1.68.29,7.33,7.33,0,0,0-1.5,1.24c-.51.54-.82.81-.92.81a8.21,8.21,0,0,1-2.89,2.27,2.57,2.57,0,0,0-1.58,1.25,4.24,4.24,0,0,0-2.34,1.64,6.84,6.84,0,0,1-1.72,1.76,5.56,5.56,0,0,0-1.36,1.21l-.73.59a5.62,5.62,0,0,0-1.21,1.94,6.7,6.7,0,0,0-.76,2.3c0,.3.17.44.51.44a7.59,7.59,0,0,0,2.74-1.06,12.28,12.28,0,0,0,2.61-1.65c.38-.39.65-.58.8-.58l2.78.14a2.24,2.24,0,0,1,1.5-1.24,2.73,2.73,0,0,0,1.65-1.25c.39-.63,1.49-1.31,3.3-2l.8-1.32Z" transform="translate(-314.5 -438.47)"/><path d="M1146.85,501.39l2.05-.95a7.86,7.86,0,0,0,2-1.91l2.57-1.83a7.83,7.83,0,0,1,2.86-1.46l1.17.44c.1,0,.4-.31.91-.92a2.32,2.32,0,0,1,1.8-.92c.88,0,2.08.66,3.59,2s2.27,2.49,2.27,3.52l-.29,2.49a24.67,24.67,0,0,0,.59,3.29v.59l-.3,1.76.3,1.83-.81,3.59c0,.93.32,1.39,1,1.39a5.27,5.27,0,0,1,2.13-1.39l1-1c.4-.39.69-.58.88-.58s.45-.23.77-.7a2.69,2.69,0,0,1,1.21-1,1.76,1.76,0,0,0,1-1q4.1-4.47,6.3-5.13c.19,0,.52-.24,1-.73a3.28,3.28,0,0,1,1.13-.88l1.61-1.25.66.3h.15a5.15,5.15,0,0,0,1.17-.74,3.28,3.28,0,0,1,1.47-.73,6,6,0,0,1,4.57,1.87c1.2,1.24,1.8,2.21,1.8,2.89l-.37,1.69.52,2.27v1.46l-.37,1.54a2.46,2.46,0,0,0,.62,1.25,2.46,2.46,0,0,1,.62,1.09c-.58.64-.87,1-.87,1.25l.14,1.32-.36,4a3.45,3.45,0,0,0,1,1.68,4.21,4.21,0,0,1,1.24-.51,5.53,5.53,0,0,0,1.24-.48,2.13,2.13,0,0,0,.44-.29s0,0-.08,0a4.32,4.32,0,0,1,.88.29h.29c.39,0,.61-.37.66-1.13a2.34,2.34,0,0,1,1.46-1.87l1.76.15a7.33,7.33,0,0,0,.62-1.21,11.25,11.25,0,0,1,3.07-3.15q2.58-2.08,4-2.09c.78,0,1.17.35,1.17,1a10,10,0,0,1-.3,1.54,3.72,3.72,0,0,1,.59,1.75c0,.93-.79,1.93-2.38,3a10.74,10.74,0,0,0-3.62,4l-.29.29-1.47-.15c-.09,0-.33.38-.69,1.14s-.79,1.18-1.28,1.28a1.94,1.94,0,0,0-1,.44l-1.54,1a34.83,34.83,0,0,0-2.89,3c-1.64,1.78-3,2.67-4.13,2.67a8.8,8.8,0,0,1-2.64-.77,6.55,6.55,0,0,1-2.56-1.57,14.74,14.74,0,0,0-1.86-1.83c-.81-.69-1.21-2-1.21-3.89,0-.09.13-.26.4-.51s.4-.44.4-.59c-1.12-1.46-1.68-2.51-1.68-3.14a3.46,3.46,0,0,1,.15-1,3.36,3.36,0,0,0,.14-1l-.14-2.56.29-1.32-.15-.81.44-3.73c0-.59-.34-.88-1-.88-.2,0-.47.2-.81.59a3.51,3.51,0,0,1-1.28.91,4.26,4.26,0,0,0-1.65,2.09,5.25,5.25,0,0,0-1.8,1.43c-.32.46-.57.69-.77.69a2.76,2.76,0,0,1-.59-.14,1.64,1.64,0,0,0-.88,1.31v.3l.15.58c0,.44-.37.86-1.1,1.25a9.32,9.32,0,0,0-2.71,3,2.5,2.5,0,0,0-1,.15l-.88,1.76a4.29,4.29,0,0,0-1.39,1.53l-.88.44a11.27,11.27,0,0,1-1,1.61l-.44.81q-3.15,3.74-4.4,3.74t-3-3.3a12,12,0,0,1-1.76-5.13l.29-2.71a6.14,6.14,0,0,0-.59-1.17v-.29a14.25,14.25,0,0,1,.59-1.69v-2.19a1.07,1.07,0,0,0-.15-.44v-.37a5.56,5.56,0,0,1,.59-1.17l-.44-2.13.29-1.17-.14-2.56.29-2.27a1.82,1.82,0,0,0-.4-.77c-.27-.37-.45-.55-.55-.55a10.53,10.53,0,0,0-3,1.68,21.7,21.7,0,0,0-3.4,2.64c-.58.64-1.37,1.39-2.34,2.27-1,.49-1.73,1.74-2.12,3.74,0,.1-.1.14-.29.14,0-.09-.15-.19-.44-.29h-.3c-.24,0-1,1.05-2.26,3.15l-.3.29-1.39-.29c-1.17,0-1.75,1.25-1.75,3.74,0,.43-.31.73-.92.87a2.17,2.17,0,0,0-1.42,1.25,12.36,12.36,0,0,1-1.39,2.12,5.25,5.25,0,0,0-1.91,1.1c0,.05-.54.78-1.62,2.2a23.25,23.25,0,0,0-1.77,2.49,2.23,2.23,0,0,1-1,.84q-.84.48-.84.84l.22,1.25q0,1.17-2.28,1.17-4.41,0-4.4-9.15a4.08,4.08,0,0,1,.91-2.31,21.19,21.19,0,0,0,1.8-3.11,35,35,0,0,0,3.29-4A31.82,31.82,0,0,1,1130,512l1-1.54a2,2,0,0,1,.37-1.32,1.67,1.67,0,0,0,.36-1.1c0-.78-.19-1.17-.58-1.17a3.23,3.23,0,0,0-2.2.7,4.94,4.94,0,0,1-1.79,1,1.82,1.82,0,0,0-1.29,1,6.08,6.08,0,0,0-2.16,1.87,23.06,23.06,0,0,1-1.5,1.79,4.49,4.49,0,0,0-.69,1,1.16,1.16,0,0,1-.84.7,1.69,1.69,0,0,0-.95.51,1.93,1.93,0,0,1-1.39.44c-.44,0-.84-.45-1.21-1.35a7.84,7.84,0,0,1-.55-1.65q0-5.36,7.11-9.23a6.92,6.92,0,0,0,1.51-1,4.59,4.59,0,0,1,1.13-.8l.29-.51c.4-.59,1.86-1.42,4.4-2.49h1l4.91-1.25q3.15-.74,3.15,7.1l-.14,1.32.29.59a23.92,23.92,0,0,1,2.53-2.09,9.86,9.86,0,0,0,1.87-1.65A6.17,6.17,0,0,1,1146.85,501.39Z" transform="translate(-314.5 -438.47)"/><path d="M1267,515.74l1.17-1a1.2,1.2,0,0,0,1.32-1,2.37,2.37,0,0,1,1.57-1.57,6.06,6.06,0,0,0,2.52-2.39c.78-1.19,1.58-1.79,2.41-1.79.29,0,.63.25,1,.73a2.14,2.14,0,0,1,.58,1.17,10.09,10.09,0,0,1-1.46,5l-.29,2-.52,1a3.13,3.13,0,0,0-1.42,1.24,5.24,5.24,0,0,1-1.73,1.61l-.73,1a3.34,3.34,0,0,0-2.16,1.68,2,2,0,0,1-1.54,1.32,4,4,0,0,0-2.15,1.47,11.28,11.28,0,0,1-1.76.66l-.15.73a5.19,5.19,0,0,1-2.31,1.17,13.06,13.06,0,0,0-2.34.84,3,3,0,0,1-1.06.41,6,6,0,0,1-2.56-.55,7.79,7.79,0,0,0-2.42-.7,1.69,1.69,0,0,1-.51-.95,3.31,3.31,0,0,0-.73-1.36,3.64,3.64,0,0,1-.66-2.3l.29-1.39a1.27,1.27,0,0,0-.37-.74,1.26,1.26,0,0,1-.36-.73.64.64,0,0,1,.14-.44.59.59,0,0,0,.15-.44,2.49,2.49,0,0,0-.15-.8,2.69,2.69,0,0,1-.14-.74l.44-3.59c0-.29-.1-.43-.3-.43s-.54.24-1.06.73a2.5,2.5,0,0,1-1.79.73,3.29,3.29,0,0,0-1,1.83,6.49,6.49,0,0,1-1.47,1.32l-.29.44c-.1.34-.47.62-1.1.84a2.6,2.6,0,0,0-1.32.84l-.73.74-1.39-.15a10.11,10.11,0,0,0-.81,1.28,5.93,5.93,0,0,1-1.68,1.87l-5.57,4.54a28.12,28.12,0,0,1-2.57,1.46l-.44.44q-5.85,3.88-8.27,3.89a12.37,12.37,0,0,1-4.62-1.1c-1.76-.74-2.71-1.61-2.85-2.64l-.74-3a5.29,5.29,0,0,1-.66-2.86,3,3,0,0,1,.15-1.17v-.44l-.15-2.42c0-.58.47-.88,1.4-.88l-.15-2a10.27,10.27,0,0,1,1.28-2.31,10.73,10.73,0,0,1,1.72-2.31l.73-1a2.41,2.41,0,0,1,1-1.87,10.3,10.3,0,0,0,1.76-2,9,9,0,0,1,2.49-2.27l2.2-2.2a21.91,21.91,0,0,1,5.58-4.1,7.53,7.53,0,0,0,1.79-1.47,8.78,8.78,0,0,1,3.08-1.94,21,21,0,0,0,3.38-1.57,5.67,5.67,0,0,1,2.6-.95h.59a30.07,30.07,0,0,0,3.88-1.83h.44a4.51,4.51,0,0,1,1.4.58h.14l1.18-.58a1.58,1.58,0,0,1,.73-.15q4.54,0,5,6.3c.09.88.34,1.32.73,1.32s1.18-.89,2.09-2.68,2.82-2.67,5.75-2.67q3.15,0,3.15,4,0,4.76-4.25,9a5.6,5.6,0,0,0-.44,1.31l-1,3V513a2.25,2.25,0,0,1-.62,1.21,2.31,2.31,0,0,0-.63,1.36l.15,1.83-.29,2.05a2.41,2.41,0,0,0,.51,1.83,6,6,0,0,0,3.39-1.94,5.12,5.12,0,0,1,1.5-1.5l.73-.29A7.18,7.18,0,0,1,1267,515.74Zm-24.32,0a3.43,3.43,0,0,1,1.8-2.45,3.54,3.54,0,0,0,1.79-1.72,37.93,37.93,0,0,0,4-3.66c1.73-1.76,2.6-2.83,2.6-3.23,0-.14-.1-.22-.3-.22h-.14l-.59.37-1.32-.15-1.39.15-1-.51-1,.14-1.46-.29a4,4,0,0,0-2,.48,14.31,14.31,0,0,1-3.22,1.06,11.76,11.76,0,0,0-4.29,2,5.74,5.74,0,0,1-2.78,1.43c-.34.73-1.49,1.79-3.44,3.15a3.4,3.4,0,0,0-2.27,2.57,8.65,8.65,0,0,0-1.91,1.75l-.51,1.25a4.72,4.72,0,0,1-1.47.84,1.69,1.69,0,0,0-1,1.54,4.16,4.16,0,0,1-1,2.2,2.8,2.8,0,0,0-.84,1.57c0,2.39.46,3.59,1.39,3.59a8.79,8.79,0,0,0,2.45-.77,9.54,9.54,0,0,0,2.16-1.06,3.23,3.23,0,0,1,1.18-.59l1.39-.73a1.29,1.29,0,0,1,.66-.37,1.32,1.32,0,0,0,.73-.47,4.55,4.55,0,0,1,1.32-.88,3.59,3.59,0,0,0,1.46-1.28c.83-.49,2.18-1.25,4-2.27l1.54-1.18a5.46,5.46,0,0,0,2-1.24A3.82,3.82,0,0,1,1242.65,515.74Z" transform="translate(-314.5 -438.47)"/><path d="M1289.43,499.12l1.1-.29.44-1a18.8,18.8,0,0,0,5.12-4,1.62,1.62,0,0,1,.66-.58,4.09,4.09,0,0,0,1.1-1,8.85,8.85,0,0,1,6.45-2.71c2.93,0,4.49,1.79,4.69,5.35l.43,1.1a27,27,0,0,1,1.65,4.17,18.59,18.59,0,0,1,1.06,3.89,7.37,7.37,0,0,1-1.24,4q-1,.51-4.91,5.49l-.73.52a14.38,14.38,0,0,1-1.54,2.63c-1,.35-1.46.71-1.46,1.1V519a1.48,1.48,0,0,1-.33.59,10.59,10.59,0,0,0-.92,1.68l-.58.88a3.26,3.26,0,0,0-.59,1.21,5.84,5.84,0,0,1-.84,1.65,2.13,2.13,0,0,0-.55,1.17c0,.73,1,1.1,2.85,1.1a5.55,5.55,0,0,0,1.1-.44l1,.29a2.08,2.08,0,0,0,.73-.48,4.77,4.77,0,0,1,1.8-.77,6.85,6.85,0,0,0,2.12-.87,10,10,0,0,1,2.2-1,7.62,7.62,0,0,0,2.45-1.43,8.35,8.35,0,0,1,2.31-1.43,6.67,6.67,0,0,0,2.12-1.35,16.62,16.62,0,0,1,2.23-1.72,29.89,29.89,0,0,0,4-3.52,8.51,8.51,0,0,1,2.42-1.54,9,9,0,0,0,1.28-1.94c.75-1.29,1.62-1.94,2.6-1.94s1.54.49,1.54,1.47a2.18,2.18,0,0,1-.74,1.54v.43l.15,1.18a1.15,1.15,0,0,1,.15.66c0,.19-.19.48-.55.87a3.24,3.24,0,0,0-.77,1.51A1.67,1.67,0,0,1,1328,518c-.3,1.08-.67,1.69-1.14,1.84a5.76,5.76,0,0,0-1.94,1.46,32.29,32.29,0,0,1-3.51,2.93,23.77,23.77,0,0,0-3.12,2.6c-.56.61-.94.92-1.13.92a1.53,1.53,0,0,1-.59-.3,1.6,1.6,0,0,0-.58-.29c-.3,0-.49.34-.59,1l-.29.73a4.68,4.68,0,0,1-1.1.58l-.44-.14h-.29c-.59,0-.88.22-.88.66l.44.73v.15q0,1-1.17,1-.81,0-4.69,2.71l-2.12.44-1.76.95a3.55,3.55,0,0,0-1.1-.51l-1.17.37-2.12.14s-1-.49-2.68-1.46-2.77-2-3.11-2.93a20.18,20.18,0,0,0-1.32-3,5.45,5.45,0,0,1-.8-2.09,15.19,15.19,0,0,1,.58-5,14.08,14.08,0,0,0,.73-2.24,3.71,3.71,0,0,1,.85-1.57,6.83,6.83,0,0,0,1.13-2.75,35.25,35.25,0,0,1,2.93-5.2,6.7,6.7,0,0,0,1.25-2.34l1-1.32a4.08,4.08,0,0,0,.44-1.14c.19-.66.44-1,.73-1.13a4,4,0,0,0,.59-1.32c0-1.41-.64-2.12-1.91-2.12-.24,0-.51.25-.8.77a4.51,4.51,0,0,1-2,1.5,8.29,8.29,0,0,0-1.94,1.1,6.22,6.22,0,0,1-1.57.91,5.36,5.36,0,0,0-2.09,1.72l-1.25.59c-.39.93-.73,1.44-1,1.54s-1.2.34-2.71.73a4.11,4.11,0,0,0-.74.88,1.94,1.94,0,0,1-1.68.8,19.65,19.65,0,0,0-1.76,2,5.85,5.85,0,0,0-1.54.59l-1.46.37a6.36,6.36,0,0,0-1.29,1.39,3,3,0,0,1-2.6,1c-.73,0-1.1-.59-1.1-1.76a7.1,7.1,0,0,1,2.53-5.71c1.69-1.42,2.92-2.17,3.7-2.27a1.64,1.64,0,0,0,1.47-.88,2.41,2.41,0,0,1,1.42-1.21,8.25,8.25,0,0,0,2.64-2.12,7.86,7.86,0,0,1,3.26-2.24Z" transform="translate(-314.5 -438.47)"/><path d="M1343.26,499.12l1.1-.29.44-1a19,19,0,0,0,5.13-4,1.62,1.62,0,0,1,.66-.58,4.4,4.4,0,0,0,1.1-1,8.81,8.81,0,0,1,6.44-2.71c2.93,0,4.49,1.79,4.69,5.35l.44,1.1a28.13,28.13,0,0,1,1.65,4.17A19.31,19.31,0,0,1,1366,504a7.39,7.39,0,0,1-1.25,4c-.68.34-2.32,2.17-4.9,5.49l-.74.52a14.38,14.38,0,0,1-1.54,2.63c-1,.35-1.46.71-1.46,1.1V519a1.48,1.48,0,0,1-.33.59,11.49,11.49,0,0,0-.92,1.68l-.58.88a3.26,3.26,0,0,0-.59,1.21,5.36,5.36,0,0,1-.84,1.65,2.21,2.21,0,0,0-.55,1.17c0,.73,1,1.1,2.86,1.1a5.81,5.81,0,0,0,1.1-.44l1,.29a2.08,2.08,0,0,0,.73-.48,4.84,4.84,0,0,1,1.8-.77,6.85,6.85,0,0,0,2.12-.87,10.23,10.23,0,0,1,2.2-1,7.62,7.62,0,0,0,2.45-1.43,8.35,8.35,0,0,1,2.31-1.43,6.46,6.46,0,0,0,2.12-1.35,16.74,16.74,0,0,1,2.24-1.72,29.35,29.35,0,0,0,4-3.52,8.51,8.51,0,0,1,2.42-1.54,8.57,8.57,0,0,0,1.28-1.94c.76-1.29,1.62-1.94,2.6-1.94s1.54.49,1.54,1.47a2.2,2.2,0,0,1-.73,1.54v.43l.14,1.18a1.15,1.15,0,0,1,.15.66c0,.19-.18.48-.55.87a3.34,3.34,0,0,0-.77,1.51,1.67,1.67,0,0,1-1.39,1.2c-.29,1.08-.67,1.69-1.13,1.84a5.67,5.67,0,0,0-2,1.46,32.29,32.29,0,0,1-3.51,2.93,24.21,24.21,0,0,0-3.11,2.6c-.57.61-.94.92-1.14.92a1.45,1.45,0,0,1-.58-.3,1.61,1.61,0,0,0-.59-.29c-.29,0-.49.34-.58,1l-.3.73a4.48,4.48,0,0,1-1.1.58l-.44-.14h-.29c-.58,0-.88.22-.88.66l.44.73v.15q0,1-1.17,1-.81,0-4.69,2.71l-2.12.44L1357,536a3.45,3.45,0,0,0-1.1-.51l-1.17.37-2.12.14s-.94-.49-2.68-1.46-2.77-2-3.11-2.93a20.18,20.18,0,0,0-1.32-3,5.64,5.64,0,0,1-.8-2.09,14.87,14.87,0,0,1,.59-5,15.22,15.22,0,0,0,.73-2.24,3.79,3.79,0,0,1,.84-1.57A7,7,0,0,0,1348,515a35.57,35.57,0,0,1,2.92-5.2,6.54,6.54,0,0,0,1.25-2.34l.95-1.32a3.77,3.77,0,0,0,.44-1.14c.2-.66.44-1,.73-1.13a4,4,0,0,0,.59-1.32c0-1.41-.63-2.12-1.9-2.12-.25,0-.52.25-.81.77a4.41,4.41,0,0,1-2,1.5,8.44,8.44,0,0,0-1.95,1.1,6.22,6.22,0,0,1-1.57.91,5.43,5.43,0,0,0-2.09,1.72l-1.24.59c-.39.93-.74,1.44-1,1.54s-1.2.34-2.71.73a4.22,4.22,0,0,0-.73.88,2,2,0,0,1-1.69.8,20.93,20.93,0,0,0-1.76,2,6,6,0,0,0-1.54.59l-1.46.37a6.35,6.35,0,0,0-1.28,1.39,3.06,3.06,0,0,1-2.6,1c-.74,0-1.1-.59-1.1-1.76a7.09,7.09,0,0,1,2.52-5.71c1.69-1.42,2.92-2.17,3.7-2.27a1.64,1.64,0,0,0,1.47-.88,2.41,2.41,0,0,1,1.43-1.21,8.34,8.34,0,0,0,2.63-2.12,7.86,7.86,0,0,1,3.26-2.24Z" transform="translate(-314.5 -438.47)"/><path d="M1382.88,509.3l1.18-1h.44c.34,0,.85-.36,1.54-1.1l.73-.29a6.17,6.17,0,0,1,2.57-2.56l1.17-.88a2.56,2.56,0,0,1,.84-.51,7,7,0,0,0,1.76-1.43,3.31,3.31,0,0,1,2-1.21,3.74,3.74,0,0,1,1.17.15,4.67,4.67,0,0,1,1.76-1.72,7.5,7.5,0,0,0,2.13-2l1-.44a8,8,0,0,0,2.09-1.5,3.22,3.22,0,0,1,2.38-.92A6.72,6.72,0,0,1,1410,496q2.3,2.16,2.3,4.13l-1.24,5.72c-.83,4.2-1.76,6.39-2.79,6.59L1408,514q-1,.74-1,1.17l.44,1.76c0,.24-.27.61-.81,1.09-.1,0-.15.15-.15.44v3c0,.54-.34,1-1,1.32a2,2,0,0,0,.44.29,3,3,0,0,1,2-.44l1.18.15,1.6-1.62a6.3,6.3,0,0,0,1.43-.69,24.29,24.29,0,0,1,3.11-1.43l9.58-7.32q2-2,3-2c.73,0,1.1.46,1.1,1.39a5.25,5.25,0,0,1-.62,2.67,13.8,13.8,0,0,0-1.14,2.57,4.68,4.68,0,0,1-1.21,2.08,5.66,5.66,0,0,0-1.13,1.29,9.62,9.62,0,0,1-2.38,2,22.47,22.47,0,0,0-3.3,2.67,15.66,15.66,0,0,1-2.23,1.94l-3.15,2.27-.44.74a6.92,6.92,0,0,1-1.35.62,8.69,8.69,0,0,0-2.16,1.21l-1.32.73a3.06,3.06,0,0,1-1.43.37,2.59,2.59,0,0,0-1.72.84c-.49.51-.88.77-1.17.77l-1.1-.15-1.47.44a5.22,5.22,0,0,1-3-1.5,4.22,4.22,0,0,1-1.79-3.19v-.44l.15-1a6.73,6.73,0,0,0-.44-1.5,8.55,8.55,0,0,1-.44-1.36l.14-1-.14-.44a6.24,6.24,0,0,1,.29-2.49,4.24,4.24,0,0,0,.44-1.43c.1-.61.19-1.11.29-1.5l.37-1.83a2.22,2.22,0,0,1,.73-1.18c.1-.39.29-1,.59-2l.29-1.32.73-1a2.52,2.52,0,0,0,.7-1.57,5.16,5.16,0,0,1,.77-2.09,4.73,4.73,0,0,0,.66-1.32.78.78,0,0,0-.88-.88,6.44,6.44,0,0,0-1.83,1.18l-1.32-.44c-.1,0-.37.24-.81.73,0,.19-.22.34-.66.44a2.14,2.14,0,0,0-1.24,1.1l-.59.14-1-.44h-.29c-.49,0-.79.54-.88,1.62a3.72,3.72,0,0,1-2.13,1.53l-1.61.44a2,2,0,0,0-1.17,1.32,4.19,4.19,0,0,1-1.47,1.87,3.59,3.59,0,0,1-1.46.84c-1.37,0-2-.76-2-2.27l.58-3.44Zm31.65-36.62-.44-2.86v-.44q0-3.44,2.34-3.81a25.13,25.13,0,0,0,3.08-.95,5.24,5.24,0,0,1,2.74,2.31,6.38,6.38,0,0,1,1.43,3.55,2.23,2.23,0,0,1-.22.66,6.48,6.48,0,0,0-.29,1.94,3.36,3.36,0,0,1-1.43,2.49,4.59,4.59,0,0,1-2.89,1.06,4.36,4.36,0,0,1-2.6-1.43A4.63,4.63,0,0,1,1414.53,472.68Z" transform="translate(-314.5 -438.47)"/><path d="M1438.29,504.83l1.53-1.24a1.86,1.86,0,0,0,1.91-1.84c.09-1.12.9-2.09,2.41-2.92l.88-1.25q1.1-1.09,6-2.86a5.89,5.89,0,0,0,1.69-1.31.4.4,0,0,1,.29-.15l1.17.29a8,8,0,0,0,2.45-.51,9,9,0,0,1,2.89-.51l3.08-.15a3.93,3.93,0,0,1,1.2.44,5.2,5.2,0,0,0,2.24.44,4,4,0,0,1,3,1.46,4.23,4.23,0,0,1,1.36,2.71,6.7,6.7,0,0,1-2.34,4.62c-1.56,1.56-2.81,2.44-3.73,2.63a8.6,8.6,0,0,1-1.9,1.58,5.33,5.33,0,0,0-1.35,1,1.91,1.91,0,0,1-1.14.7.54.54,0,0,1-.44-.18.52.52,0,0,0-.44-.19c-.78,0-1.63,1-2.55,2.86l-1.32-.15a3.93,3.93,0,0,0-1.61,1.76,1.46,1.46,0,0,1-1.53.95q-2.71,2.72-3.66,2.71a5.33,5.33,0,0,1-1-.29,2.44,2.44,0,0,0-.59,1.54q0,.88-1.17,1l-1,.88-.73-.14-1.46,1.54a4.27,4.27,0,0,0-2.27.73c-.1.58-.24,1.33-.44,2.23s-.29,1.41-.29,1.5q0,2.13,3.88,2.13l3.52-.52a4.92,4.92,0,0,0,2.6-.73,4.92,4.92,0,0,1,2.6-.73,4.88,4.88,0,0,0,1.32-.29l.73.29a4.9,4.9,0,0,1,1.91-2,4.65,4.65,0,0,1,2.19-.88l.74-.44a1.86,1.86,0,0,1,.88-1.17l.58-.51a1.65,1.65,0,0,1,1.1-.59h1l.29-.14a3.55,3.55,0,0,1,2.45-2.24,2.8,2.8,0,0,0,2-1.06,1.8,1.8,0,0,1,1.43-.88,2.68,2.68,0,0,0,1.72-1,9.06,9.06,0,0,1,1.72-1.57,18,18,0,0,0,1.43-1.1,1.17,1.17,0,0,1,.7-.37c.29,0,.44.22.44.66s.09.66.29.66a.26.26,0,0,0,.29-.29,2.56,2.56,0,0,0-.14-.73v-.52a1.44,1.44,0,0,1,1.17-1.46l3.29-2.13c.1-1,.38-1.62.85-1.79a3.36,3.36,0,0,0,1.06-.59,1.16,1.16,0,0,1,.8-.33c.64,0,1,.37,1,1.1l-.37,1.91.37,2a2.19,2.19,0,0,1-.7,1.2,5.31,5.31,0,0,0-1.06,2.35c-.25,1-.56,1.62-1,1.72h-.43a6.31,6.31,0,0,1-2.09,1.65,2.22,2.22,0,0,0-1.21.91l-2.5,2.86c-.49.49-.9.93-1.24,1.32s-.61.58-.81.58l-.58-.58q0-.15-.3-.15c-.49,0-.79.29-.91.88a3.35,3.35,0,0,1-.77,1.54,7.85,7.85,0,0,0-2.86,1.9l-.44.15h-1.32c-.64,0-1.08.47-1.32,1.43a2.19,2.19,0,0,1-2.09,1.64,4.59,4.59,0,0,0-2.46.88,1.62,1.62,0,0,1-.66.3,10.06,10.06,0,0,0-2,1.17l-6.16,2.2a3,3,0,0,1-1,.36l-2,.29a1.17,1.17,0,0,1-.88-.58c-.29-.39-.49-.59-.59-.59l-1.32.44a9.4,9.4,0,0,1-2.78.44,3.3,3.3,0,0,1-1.62-.51,12.29,12.29,0,0,0-1.39-.73c-1.41,0-2.42-1.1-3-3.3l-.88.15c-.2,0-.86-1.74-2-5.2a2.53,2.53,0,0,0-1.39-.85,1.28,1.28,0,0,1-1-1.42c0-2.2.47-3.68,1.42-4.43s1.48-1.33,1.58-1.73l1-3.8a3.85,3.85,0,0,0,.74-1.47l1.68-3.08C1437.16,507.05,1437.6,506.2,1438.29,504.83Zm15.49-4.39-.88.44a15.65,15.65,0,0,0-1.73,1.28,16.56,16.56,0,0,1-2.78,1.83q-1.35.69-2.78,3.62a17.09,17.09,0,0,0-1.43,3.37.39.39,0,0,0,.44.44l2.49-1.1a12,12,0,0,0,2.6-1.68,35.48,35.48,0,0,1,3.48-2.49l.59-.59a4.57,4.57,0,0,1,1.35-1.06,7.11,7.11,0,0,0,1.79-1.5l.74-.29a5.4,5.4,0,0,1,2.52-2.42c.86-.29,1.29-.59,1.29-.88,0-.58-.47-.88-1.4-.88a4,4,0,0,0-1.75.73h-1.69a5.53,5.53,0,0,0-1.61.88Z" transform="translate(-314.5 -438.47)"/><path d="M1479.87,527.61l-.59-3.74a4,4,0,0,1,.44-1.39,1,1,0,0,0,.74-.29l-.44-1.32a7,7,0,0,1,1.43-4.43,9.26,9.26,0,0,0,1.57-2.53,32.81,32.81,0,0,1,2.09-4.28A26.09,26.09,0,0,1,1488,505l.44-1,.58-.15a17.55,17.55,0,0,1,4.77-4.91,9.39,9.39,0,0,1,2.49-2.64c1-.68,1.64-1.17,2-1.46a3,3,0,0,1,1.54-.59l.3-.14q2.12-2.13,3.66-2.13a7.17,7.17,0,0,1,2-1.17h.81a1.62,1.62,0,0,0,.88-.29,1.54,1.54,0,0,1,.88-.29,5.66,5.66,0,0,1,1.54.58,3.21,3.21,0,0,1,1.91-1.17,5.23,5.23,0,0,1,3.11,1.17,5.15,5.15,0,0,1,2,2.86,6,6,0,0,0,.73,2,4.67,4.67,0,0,1,.59.73c.39,0,.9-.9,1.54-2.71l.88-1.17a14.84,14.84,0,0,0,2.73-6,4.62,4.62,0,0,0,.44-1.21,24.12,24.12,0,0,1,1.55-3.62,20.68,20.68,0,0,0,3-6.3l.88-1.32a1.86,1.86,0,0,0,1-1.28,3,3,0,0,1,.44-1.28c.24-.39.52-.87.84-1.43a6.47,6.47,0,0,1,.77-1.14,6.84,6.84,0,0,0,.88-2c.39-1.15.87-1.8,1.43-1.94a5.8,5.8,0,0,0,1.72-.81l.15-.51-.3-1c0-.58.65-1.61,2-3.07a26,26,0,0,0,2.78-3.63c.56-.95,1.51-2.42,2.85-4.39a18.23,18.23,0,0,1,2.9-3.63l1.68-1.76a3.79,3.79,0,0,1,3.3-1.68,5,5,0,0,1,3.37,1.72,4.9,4.9,0,0,1,1.76,3.41,10.94,10.94,0,0,1-.81,2.71l-.15.88a6.5,6.5,0,0,1-.8,2.78,9.27,9.27,0,0,0-1,2.49l-4.11,10a3.49,3.49,0,0,0-.87.44q-1.92,4.19-3,4.54V475q0,.81-1,1.17l-.3.15a10.13,10.13,0,0,1-1.68,4,8.73,8.73,0,0,0-1.5,2.53,1.93,1.93,0,0,1-1.5,1.43c-.69.1-1,1.05-1,2.86-.2,1-.68,1.46-1.46,1.46s-1.2.64-1.4,1.91-1.14,1.95-2.85,2a1.73,1.73,0,0,0-.88,1l.59,1.83c0,.3-.91,1.44-2.71,3.45l-.59,1.9c-.93.34-1.69,2.86-2.27,7.54l-.88,5.06.15,2-.3,1,.88,3-.14,1.69q0,1.17.87,1.17.45,0,2-1.32l1-.44q4.61-2.34,5.7-4.54a3.16,3.16,0,0,1,1.06-.59,2.34,2.34,0,0,0,1.13-.8,6.1,6.1,0,0,1,.58-.73c3-2,4.9-3.67,5.78-5.13a5.53,5.53,0,0,1,2.7-2.64l.59-.58a2.53,2.53,0,0,1,1.46-.74c.83,0,1.24.25,1.24.74l-.58,2.05a14.22,14.22,0,0,1,.73,2.27,2.89,2.89,0,0,1-2.27,3.15,7.21,7.21,0,0,0-1.51,2.19,2.81,2.81,0,0,1-2.38,1.54,7.5,7.5,0,0,1-2.27,2.31q-1,.55-1,1.14v.65a4.6,4.6,0,0,1-1,1.18l-1.39-.3a11.48,11.48,0,0,1-1.32,2.42,1.16,1.16,0,0,0-.66-.29A1.93,1.93,0,0,0,1536,525c-.44.83-.75,1.25-1,1.25h-1.68a8,8,0,0,0-1.18.95,4,4,0,0,1-2.71.73l-2.27.44a9.49,9.49,0,0,1-5.94-2.09c-1.8-1.39-2.77-2.66-2.89-3.8a15.1,15.1,0,0,0-1.21-4.14l-.14-3q-.81-4.68-1.84-4.68l-.14.95-.59.29c-.29,1.52-.78,2.27-1.47,2.27a3.79,3.79,0,0,0-1,.74l-.44.29a3.12,3.12,0,0,0-.84,1.24,11.61,11.61,0,0,1-3,3.08c-.68,1.81-1.2,2.71-1.54,2.71l-.88-.59h-.14c-.39,0-.71.58-1,1.72s-.73,1.73-1.46,1.73c-.2,0-.38.33-.55,1a1.64,1.64,0,0,1-1.29,1.25q-1,.26-1.83,2c-.54,1.18-.9,1.76-1.1,1.76a1.19,1.19,0,0,1-.44-.14l-1.25.29q-.36.51-1,1.68a4.82,4.82,0,0,0-1.18.59,8.3,8.3,0,0,1-6,2.2,6.89,6.89,0,0,1-4.18-1.14,5,5,0,0,1-1.83-1.94,10.49,10.49,0,0,0-1.1-2A6.85,6.85,0,0,1,1479.87,527.61ZM1509.12,511l.51-1a2.67,2.67,0,0,0,1.62-2.2,27.31,27.31,0,0,0,3-3.8,20.4,20.4,0,0,0,2.42-3.74,2.31,2.31,0,0,0-1.69-.73,4.32,4.32,0,0,0-.88.29,7.82,7.82,0,0,1-1.5.44,6.35,6.35,0,0,0-1.65.59l-1.83-.3c-.54,0-1.73.71-3.59,2.13l-1.69-.3c-.29,0-.78.64-1.46,1.91l-3.74,3h-.44c-.68,0-1.15.61-1.39,1.83a8.41,8.41,0,0,1-2.35,2.24,3.32,3.32,0,0,0-1.53,1.79v1c-1.37,1.52-2.06,2.66-2.06,3.45a7,7,0,0,0-2,3.14,13.09,13.09,0,0,1-1.14,2.86,14.42,14.42,0,0,1,.44,2.53q.15,1.5,1.47,1.5c1.41,0,3-.85,4.69-2.56a10.63,10.63,0,0,1,1.24-.81,18.31,18.31,0,0,0,3-2.6,18.13,18.13,0,0,1,2.16-2c.48-.49.78-.74.88-.74l.58-.58q0-.3.63-.66a8.57,8.57,0,0,0,1.64-1.5,5.46,5.46,0,0,1,1.58-1.36,1.4,1.4,0,0,0,.77-.62,2.49,2.49,0,0,1,.73-.77,1,1,0,0,0,.51-.81l.15-.87Zm25.42-29.73-.74,2.12c.64-.1,1.2-.76,1.69-2a28.8,28.8,0,0,1,3-3.88c.63,0,1.11-.4,1.43-1.21a6.81,6.81,0,0,1,1.72-2.38,4.75,4.75,0,0,1,1.1-2,20.52,20.52,0,0,0,1.43-2.09,7.72,7.72,0,0,1,1.35-1.65,9.79,9.79,0,0,0,1.94-3.52,7.81,7.81,0,0,1,1.58-3,2.5,2.5,0,0,0,.66-2.05c0-1.41-.1-2.12-.3-2.12-.44,0-.76.28-1,.84a8.82,8.82,0,0,1-1.43,2.16l-2.49,4.17a21,21,0,0,0-1.94,4c-.32,1-.69,1.55-1.1,1.72a4.23,4.23,0,0,0-1.5,1.43l-1,1a10.77,10.77,0,0,0-.59,2.13l-.65.58v1.4a2.16,2.16,0,0,1-1.1,1.72c-.74.51-1.1.84-1.1,1Z" transform="translate(-314.5 -438.47)"/><path d="M1572.51,518l.58.59a5.7,5.7,0,0,1,1.65,2.31,5.43,5.43,0,0,0,.77,1.76,3.16,3.16,0,0,1,.59,1.64,3.72,3.72,0,0,1-.88,1.36c-.59.71-1.06,2.26-1.43,4.65s-1.6,3.59-3.7,3.59a4.85,4.85,0,0,1-3.88-1.39,2.82,2.82,0,0,1-1.65-.33,8.53,8.53,0,0,1-1.32-2.31,11.11,11.11,0,0,0-1.53-2.64,2.64,2.64,0,0,1-.63-1.9,4.73,4.73,0,0,1,1.17-3,9.11,9.11,0,0,0,1.69-3c1.51-1.51,2.54-2.29,3.08-2.34a5.22,5.22,0,0,0,1.35-.29,3.37,3.37,0,0,1,1.28-.22A4.31,4.31,0,0,1,1572.51,518Zm21.37-49.51-.73.59-2,3.59a3.08,3.08,0,0,1-.59.95l-1,1.32a6.62,6.62,0,0,1-1.25,2.49,4.5,4.5,0,0,0-1,1.87,3.11,3.11,0,0,1-.7,1.42,8.19,8.19,0,0,0-1.07,2.93l-1.62,4.91-1,1.25v.88c0,.29-.39.68-1.18,1.17v2.56a19.35,19.35,0,0,0-1.68,2.86l-.66,4.9q-.74,6.53-2.13,7.69l-.95.88a1.44,1.44,0,0,1-1.46.81c-.39,0-1.25-.66-2.57-2l-.88-.29a6.32,6.32,0,0,1-2.45-2.78,8.58,8.58,0,0,1-1.21-4.11,7.28,7.28,0,0,1,.7-3.69,5.08,5.08,0,0,0,.77-1.73l3.73-9.81a47.08,47.08,0,0,1,4.75-9.67l1-2.85.73-.88.73-2.86c.2-.19.51-.46,1-.81a15,15,0,0,1,2.12-4.87,7.18,7.18,0,0,0,1.46-2.89,3.23,3.23,0,0,1,1.1-2.05c.43-.24.79-1,1.06-2.34a3.42,3.42,0,0,1,2.74-2.64l-.44-.95v-.15a6.07,6.07,0,0,1,.94-1.32q.93-1.17,2.69-6.22t4.47-5.06q1.38,0,4,3.63t2.6,5.38c0,1.52-1,3.4-2.86,5.64a36.09,36.09,0,0,0-4.43,6.37,31.37,31.37,0,0,0-2,4.29A3.55,3.55,0,0,1,1593.88,468.5Z" transform="translate(-314.5 -438.47)"/></svg>